<?xml version="1.0" encoding="utf-8"?>
<!-- Generator: Adobe Illustrator 26.1.0, SVG Export Plug-In . SVG Version: 6.00 Build 0)  -->
<svg version="1.1" id="Шар_1" xmlns="http://www.w3.org/2000/svg" xmlns:xlink="http://www.w3.org/1999/xlink" x="0px" y="0px"
	 viewBox="0 0 409.39 92.41" style="enable-background:new 0 0 409.39 92.41;" xml:space="preserve">
<style type="text/css">
	.st0{opacity:0.4;fill:url(#SVGID_1_);enable-background:new    ;}
</style>
<linearGradient id="SVGID_1_" gradientUnits="userSpaceOnUse" x1="210.6955" y1="164.3374" x2="202.7584" y2="-30.6864" gradientTransform="matrix(1 0 0 -1 0 85.6001)">
	<stop  offset="0" style="stop-color:#FFFFFF;stop-opacity:0.8"/>
	<stop  offset="1" style="stop-color:#6480E8;stop-opacity:0.8"/>
</linearGradient>
<path class="st0" d="M400.49,56.21c-1.89-16.03-25.32-28.71-53.98-28.71c-4.06,0-8.02,0.26-11.83,0.75
	C330.87,12.27,308.68,0,281.87,0c-20.83,0-38.86,7.41-47.66,18.22c-4.95-4.35-12.17-7.1-20.23-7.1c-8.02,0-15.22,2.72-20.17,7.04
	c-6.05-6.32-16.33-10.48-28.02-10.48c-13.11,0-24.45,5.24-30.03,12.89c-9.07-6.4-22.41-10.45-37.28-10.45
	c-27.03,0-48.99,13.35-49.48,29.94c-0.74,0.45-1.47,0.92-2.17,1.39c-1.25-0.2-2.53-0.32-3.85-0.32c-9.73,0-17.9,5.84-20.28,13.76
	C8.8,58.36,0,63.48,0,69.18C0,78.95,25.78,87,58.89,88.02c11.97,3.67,26.99,5.24,43.11,3.94c8.09-0.65,15.79-1.98,22.87-3.83h208.08
	c4.33,0.63,8.86,0.97,13.54,0.97c6.68,0,13.07-0.69,18.97-1.95c1.09,0.04,2.19,0.07,3.31,0.07c22.43,0,40.62-8.54,40.62-19.07
	C409.41,63.62,406.06,59.47,400.49,56.21z"/>
</svg>
