<?xml version="1.0" encoding="utf-8"?>
<!-- Generator: Adobe Illustrator 26.1.0, SVG Export Plug-In . SVG Version: 6.00 Build 0)  -->
<svg version="1.1" id="Шар_1" xmlns="http://www.w3.org/2000/svg" xmlns:xlink="http://www.w3.org/1999/xlink" x="0px" y="0px"
	 viewBox="0 0 417.91 101.16" style="enable-background:new 0 0 417.91 101.16;" xml:space="preserve">
<style type="text/css">
	.st0{opacity:0.4;fill:url(#SVGID_1_);enable-background:new    ;}
</style>
<linearGradient id="SVGID_1_" gradientUnits="userSpaceOnUse" x1="220.9372" y1="219.761" x2="205.0632" y2="-34.2232" gradientTransform="matrix(1 0 0 -1 0 102.3599)">
	<stop  offset="0" style="stop-color:#FFFFFF;stop-opacity:0.8"/>
	<stop  offset="1" style="stop-color:#6480E8;stop-opacity:0.8"/>
</linearGradient>
<path class="st0" d="M382.58,61.14c-8.67-13.19-32.53-24-61.33-26.32c-12.94-1.04-25.17-0.24-35.69,2.02
	c-2.26-11.53-16.34-20.41-33.42-20.41c-17.03,0-31.07,8.84-33.39,20.31c-2.09-6.23-9.87-10.87-19.19-10.87
	c-5.34,0-10.18,1.53-13.74,4.01c-3.65-5.82-9.88-10.82-17.8-14.51C157.95,5.96,143.11,0,126.54,0c-20.87,0-39.02,9.44-48.32,23.35
	c-1.37-0.33-2.8-0.53-4.28-0.53c-5.95,0-11.22,2.89-14.52,7.33c-15.62-2.27-29.56,3.14-33.49,14.09c-0.82,2.3-1.14,4.69-1.03,7.11
	c-0.78,0.74-1.51,1.5-2.18,2.28c-1.48-0.39-3.03-0.62-4.63-0.62C8.1,53.01,0,61.11,0,71.1c0,9.99,8.1,18.09,18.09,18.09h0.01
	c7.45,4.14,18.59,6.78,31.04,6.78c1.11,0,2.21-0.03,3.31-0.07c5.91,1.26,12.3,1.95,18.97,1.95c4.67,0,9.21-0.34,13.54-0.97h208.08
	c7.08,1.86,14.78,3.18,22.87,3.83c16.12,1.3,31.14-0.27,43.11-3.94c33.11-1.02,58.89-9.06,58.89-18.84
	C417.94,70.63,403.6,64.31,382.58,61.14z"/>
</svg>
