<?xml version="1.0" encoding="utf-8"?>
<!-- Generator: Adobe Illustrator 26.1.0, SVG Export Plug-In . SVG Version: 6.00 Build 0)  -->
<svg version="1.1" id="Шар_1" xmlns="http://www.w3.org/2000/svg" xmlns:xlink="http://www.w3.org/1999/xlink" x="0px" y="0px"
	 viewBox="0 0 442.67 124.44" style="enable-background:new 0 0 442.67 124.44;" xml:space="preserve">
<style type="text/css">
	.st0{opacity:0.4;fill:url(#SVGID_1_);enable-background:new    ;}
</style>
<linearGradient id="SVGID_1_" gradientUnits="userSpaceOnUse" x1="210.2978" y1="130.6465" x2="231.8412" y2="-67.7786" gradientTransform="matrix(1 0 0 -1 0 124.4444)">
	<stop  offset="0" style="stop-color:#FFFFFF;stop-opacity:0.8"/>
	<stop  offset="1" style="stop-color:#6480E8;stop-opacity:0.8"/>
</linearGradient>
<path class="st0" d="M390.3,55.19c-1.39,0-2.76,0.05-4.11,0.13c-4.5-3.95-9.97-7.47-16.2-10.18c-15.42-6.73-31.27-6.78-41.35-1.19
	c-8.37-10.22-25.46-17.22-45.2-17.22c-6.72,0-13.14,0.81-19.01,2.29c-7.5-8.06-21.12-13.45-36.69-13.45c-3.31,0-6.53,0.25-9.63,0.71
	c-9.41-4.68-20.85-7.44-33.2-7.44c-26.57,0-48.96,12.72-55.83,30.08c-4.53-0.86-9.32-1.33-14.27-1.33
	c-22.81,0-42.11,9.73-48.57,23.14c-4.74-1.17-9.89-1.82-15.26-1.82c-23.65,0-42.83,12.44-42.83,27.78s19.17,27.78,42.83,27.78
	c7.97,0,15.43-1.42,21.82-3.88c11.19,3.26,25.03,4.65,39.87,3.45c7.68-0.62,14.99-1.88,21.72-3.64h197.58
	c4.11,0.6,8.42,0.92,12.85,0.92c6.34,0,12.41-0.66,18.02-1.85c1.04,0.04,2.08,0.06,3.14,0.06c3.32,0,6.54-0.2,9.61-0.57
	c4.58,1.14,9.54,1.77,14.73,1.77c23.13,0,41.88-12.44,41.88-27.78S413.43,55.19,390.3,55.19z"/>
</svg>
