<?xml version="1.0" encoding="utf-8"?>
<!-- Generator: Adobe Illustrator 26.1.0, SVG Export Plug-In . SVG Version: 6.00 Build 0)  -->
<svg version="1.1" id="Шар_1" xmlns="http://www.w3.org/2000/svg" xmlns:xlink="http://www.w3.org/1999/xlink" x="0px" y="0px"
	 viewBox="0 0 1920 1080" style="enable-background:new 0 0 1920 1080;" xml:space="preserve">
<style type="text/css">
	.st0{fill:url(#SVGID_1_);}
</style>
<linearGradient id="SVGID_1_" gradientUnits="userSpaceOnUse" x1="953.6526" y1="997.719" x2="963.5229" y2="254.1548">
	<stop  offset="0" style="stop-color:#3F7FB6"/>
	<stop  offset="1" style="stop-color:#64BCE8"/>
</linearGradient>
<path class="st0" d="M1151.78,257.85c-15.23-17.16-39.71-28.29-67.32-28.29c-27.7,0-52.24,11.21-67.46,28.46
	c-18.35-17.25-47.93-28.46-81.32-28.46c-30.43,0-57.69,9.32-76.18,24.02c-11.85-9.37-26.81-14.98-43.09-14.98
	c-6.42,0-12.63,0.89-18.53,2.52c-11.99-9.79-27.3-15.68-43.98-15.68c-4.79,0-9.47,0.48-13.98,1.41v187.73v63.84v375.77h439.61
	v-367.2v-72.4V243.24C1169.12,246.57,1159.71,251.56,1151.78,257.85z"/>
</svg>
