<?xml version="1.0" encoding="utf-8"?>
<!-- Generator: Adobe Illustrator 26.1.0, SVG Export Plug-In . SVG Version: 6.00 Build 0)  -->
<svg version="1.1" id="Layer_1" xmlns="http://www.w3.org/2000/svg" xmlns:xlink="http://www.w3.org/1999/xlink" x="0px" y="0px"
	 viewBox="0 0 3018.94 2718.57" style="enable-background:new 0 0 3018.94 2718.57;" xml:space="preserve">
<style type="text/css">
	.st0{fill:none;}
	.st1{fill:#FFFFFF;}
	.st2{opacity:0.3;}
	.st3{fill:#000072;}
	.st4{fill:#1389EA;}
	.st5{opacity:0.35;}
	.st6{fill:#F91228;}
	.st7{opacity:0.15;}
	.st8{fill:#371A45;}
	.st9{opacity:0.4;}
	.st10{fill:#D25658;}
	.st11{opacity:0.25;}
	.st12{fill:#FF061E;}
	.st13{fill:#FFD400;}
	.st14{fill:#2D95EA;}
	.st15{fill:#4D1C54;}
	.st16{fill:#22A7F0;}
	.st17{opacity:0.2;}
	.st18{opacity:0.7;}
	.st19{fill:#46C1F7;}
	.st20{opacity:0.5;}
	.st21{fill:#F9A528;}
	.st22{fill:#FF6C6C;}
	.st23{fill:#FF9100;}
	.st24{fill:#982E20;}
	.st25{fill:#FF88BE;}
	.st26{fill:#FF4848;}
</style>
<g>
	<g>
		<rect x="-117.06" y="-33.88" class="st0" width="3136" height="3136"/>
	</g>
	<g>
		<g>
			<path class="st1" d="M2072.52,1222.48c0,0,80.37,199.7,213.63,328.32c74.69,72.08,85.11,144.34,40.65,191.23
				s-140.45,81.4-229.98,11.65c-89.54-69.75-131.87-393.25-131.87-393.25"/>
		</g>
		<g>
			<path class="st1" d="M2326.8,1742.01c-31.13,32.84-87.45,59.6-149.16,48.79c-26.48-4.64-53.95-16.16-80.81-37.14
				c-89.56-69.73-131.89-393.25-131.89-393.25l107.6-137.96c0,0,5.95,14.76,17.27,38.88c30.33,64.49,99.32,195.82,196.35,289.45
				C2360.85,1622.91,2371.24,1695.14,2326.8,1742.01z"/>
		</g>
		<g class="st2">
			<path class="st3" d="M2237.2,1751.42c-14.87,15.66-35.4,29.91-59.56,39.39c-26.48-4.64-53.95-16.16-80.81-37.14
				c-89.56-69.73-131.89-393.25-131.89-393.25l107.6-137.96c0,0,5.95,14.76,17.27,38.88c3.68,88.14,24.21,219.12,106.75,298.8
				C2271.24,1632.26,2281.68,1704.5,2237.2,1751.42z"/>
		</g>
		<g>
			<path class="st3" d="M2205.23,1809.42c-37.37,0-78.04-11.92-118.11-43.12c-93.62-72.93-136.12-390.31-137.88-403.78
				c-1.14-8.73,4.96-16.75,13.63-17.89c8.63-1.16,16.63,4.99,17.76,13.73c11.55,88.17,56.67,328.83,125.86,382.71
				c84.11,65.51,170.97,29.89,208.84-10.04c40.29-42.49,25.28-105.56-40.14-168.71c-134.16-129.48-214.01-325.56-217.34-333.84
				c-3.29-8.16,0.62-17.46,8.73-20.77c8.1-3.32,17.34,0.63,20.62,8.78c0.8,1.96,80.74,198.13,209.91,322.79
				c78.53,75.79,94.3,157.7,41.14,213.76C2310.68,1782.12,2261.75,1809.41,2205.23,1809.42z"/>
		</g>
		<g>
			<path class="st1" d="M2079.88,1538.25c0,0,262.51,135.68,191.21,418.6c-47.85,189.9-31.32,144.23-31.32,144.23l-521.83-137.64
				l135.48-520.92L2079.88,1538.25z"/>
		</g>
		<g>
			<path class="st3" d="M2237.63,2122.98c-2.15,0-4.02-0.42-5.35-0.83c-5.4-1.68-8.67-4.35-10.4-8.19l-508.23-134.05
				c-9.03-2.38-14.43-11.68-12.07-20.78l135.48-520.92c1.25-4.77,4.47-8.76,8.86-10.94c4.39-2.18,9.51-2.34,14.02-0.43l226.46,95.72
				c0.4,0.16,0.79,0.35,1.17,0.54c2.81,1.45,69.4,36.34,127.66,107.52c54.23,66.25,110.78,177.35,72.2,330.41
				c-21.13,83.85-29.02,119.13-31.92,133.94c1.45,3.81,1.5,8.05,0.1,11.93C2250.86,2120.12,2243.28,2122.98,2237.63,2122.98z
				 M1738.56,1951.3l485.68,128.09c0.3-1.37,0.6-2.78,0.91-4.23c5.42-24.98,15.37-66.19,29.56-122.5
				c28.07-111.38,6.28-212.12-64.77-299.46c-51.24-62.99-111.17-96.26-117.29-99.56l-207.82-87.83L1738.56,1951.3z"/>
		</g>
		<g>
			<g>
				<g>
					<path class="st4" d="M1253.78,2457.52l-80.96-10.67c-36.62-4.82-67.66-29.52-80.81-64.28l0,0
						c-39.14-103.52-49.42-215.86-29.69-324.83l0,0c6.63-36.59,32.66-66.57,67.8-78.06l77.67-25.37L1253.78,2457.52z"/>
				</g>
				<g class="st2">
					<path class="st3" d="M1207.79,1954.33l-12.96,4.24l37.84,413.89l-80.96-10.66c-36.62-4.82-67.66-29.52-80.81-64.28
						c-3.33-8.81-6.38-17.71-9.29-26.65c6.58,37.97,16.67,75.39,30.41,111.72c13.14,34.76,44.18,59.45,80.81,64.28l80.96,10.66
						L1207.79,1954.33z"/>
				</g>
				<g class="st5">
					<path class="st1" d="M1123.69,2409.16c-39.14-103.52-49.42-215.86-29.69-324.83l0,0c6.63-36.59,32.66-66.57,67.8-78.06
						l49.27-16.09l-3.28-35.86l-77.67,25.37c-35.13,11.47-61.18,41.45-67.8,78.06l0,0c-19.73,108.97-9.45,221.3,29.69,324.83
						c8.8,23.28,25.66,42,46.81,53.31C1132.56,2427.91,1127.4,2418.95,1123.69,2409.16z"/>
				</g>
				<g>
					<path class="st6" d="M991.84,1776.08c41.89,20.96,239.49,117.84,245.92,237.96l191.8-106.33c-1.09-5.8-2.56-11.82-4.41-17.97
						v-0.03c-26.78-88.25-136.43-206.27-426.03-124.31c-2.15,0.6-4.31,1.22-6.5,1.85C988.51,1768.43,987.99,1774.13,991.84,1776.08z
						"/>
				</g>
				<g class="st7">
					<path class="st8" d="M991.84,1776.08c41.89,20.96,239.49,117.84,245.92,237.96l191.8-106.33c-1.09-5.8-2.56-11.82-4.41-17.97
						l3.22,8.21c-15.06-5.56-38.96-10.91-61.04-6.75c-81.14,15.28-124.22,17.2-167.55-22.14c-54.33-49.31-152.86-98.1-200.64-103.68
						c-2.15,0.6-4.31,1.22-6.5,1.85C988.51,1768.43,987.99,1774.13,991.84,1776.08z"/>
				</g>
				<g class="st9">
					<g>
						<path class="st1" d="M1006.15,1783.27c-10.4-5.55-6-3.03-14.31-7.2c-3.87-1.93-3.34-7.63,0.8-8.84
							c314.93-91.54,420.1,51.11,436.94,140.47l-20.78,11.5C1377.09,1837.97,1248.51,1728.42,1006.15,1783.27z"/>
					</g>
				</g>
				<g>
					<path class="st3" d="M1237.77,2031.05c-8.91,0-16.38-7.03-16.86-16.1c-2.17-40.49-35.55-123.24-234.6-222.64l-1.99-1
						c-8.05-4.03-12.72-12.45-11.9-21.47c0.81-9.02,6.91-16.47,15.54-18.98c152.66-44.37,273.21-40.15,358.32,12.53
						c74.91,46.37,94.82,114.14,99.9,141.12c1.74,9.23-4.28,18.14-13.45,19.89c-9.16,1.78-18.01-4.31-19.76-13.54
						c-4.25-22.55-20.97-79.22-84.39-118.47c-70.1-43.39-173.72-49.16-300.97-17.06c181.45,96.23,224.04,181.88,227.04,237.77
						c0.51,9.39-6.64,17.4-15.96,17.91C1238.38,2031.04,1238.07,2031.05,1237.77,2031.05z"/>
				</g>
				<g>
					<path class="st10" d="M1481.33,2473.92c-0.36,90.96-77.44,255.58-403.67,223.48c-4.28-0.42-5.83-5.95-2.39-8.55
						c37.4-28.3,213.62-165.26,198.18-284.53"/>
				</g>
				<g>
					<path class="st6" d="M1077.66,2697.42c-4.28-0.45-5.82-5.96-2.38-8.57c19.14-14.5,74.71-57.5,122.3-112.06
						c44.98-51.52,82.8-113.39,76-171.2c-0.04-0.42-0.11-0.86-0.15-1.27l1.27,0.41l206.61,69.18c-0.1,25.53-6.24,56.87-22.28,88.03
						C1418.07,2641.8,1312.35,2720.48,1077.66,2697.42z"/>
				</g>
				<g class="st11">
					<path class="st8" d="M1197.58,2576.79c44.98-51.52,82.8-113.39,76-171.2c0.37-0.28,0.73-0.59,1.11-0.86l206.61,69.18
						c-0.1,25.53-6.24,56.87-22.28,88.03C1396.84,2589.85,1311.59,2601.04,1197.58,2576.79z"/>
				</g>
				<g>
					<path class="st3" d="M1158.05,2718.57c-26.01,0-53.36-1.41-82.04-4.23c-8.93-0.87-16.28-7.07-18.71-15.8
						c-2.43-8.72,0.63-17.87,7.82-23.3c48.35-36.6,205.1-164.15,191.58-268.73c-1.2-9.33,5.32-17.86,14.57-19.07
						c9.25-1.25,17.73,5.36,18.94,14.67c13.75,106.31-106.26,221.23-179.89,280.84c129.19,7.93,229.23-16.98,290.54-72.76
						c58.71-53.42,63.5-117.86,63.58-136.34c0.03-9.38,7.6-16.95,16.9-16.95c0.02,0,0.04,0,0.07,0c9.33,0.04,16.87,7.69,16.84,17.09
						c-0.11,28.21-7.61,100.41-74.71,161.47C1362.75,2690.73,1273.66,2718.57,1158.05,2718.57z"/>
				</g>
				<g>
					<path class="st1" d="M3000.41,2041.88c0,0-202.86,433.7-869.05,542.35c-567.47,92.52-877.55-126.73-877.55-126.73
						c-60.45-126.94-82.59-268.22-65.02-406.52c4.14-32.5,10.48-64.75,18.97-96.65c0,0,65.73-67.52,202.64-136.98
						c53.87-27.36,118.75-55,195.01-78.96c119.17-37.43,266.19-65.81,442.21-69.93c9.92-0.22,19.82-0.38,29.62-0.38
						c41.7-0.3,81.87,1.02,120.48,3.7C2763.8,1710.91,3000.41,2041.88,3000.41,2041.88z"/>
				</g>
				<g>
					<g class="st2">
						<path class="st3" d="M2017.66,2438.65c-100.34,9.31-191.82-45.99-233.74-131.97c-48.74-5.41-85.81-17.82-123.97-57.73
							c-22.35-23.37-60.71-78.82-77.27-205.12c-17.7-135.05-116.9-172.28-171.72-235.69c55.82-28.49,112.01-51.63,195.24-78.89
							c94.31-30.87,206.66-53.81,336.69-64.72c-30.49,38.39-55.69,76.52-57.7,78.08c-0.51,0.43-0.77,0.65-0.77,0.65
							c76.34,81.55,58.89,170.48,29.6,235.38c18.98-7.04,39.2-11.76,60.3-13.69c129.9-12.07,244.91,84.21,256.9,215.06
							C2243.16,2310.8,2147.55,2426.62,2017.66,2438.65z"/>
					</g>
				</g>
				<g>
					<g class="st2">
						<path class="st3" d="M1193.51,2235.33c11.23,65.46,31.36,129.53,60.27,190.3c0,0,310.12,219.22,877.6,126.67
							c240.12-39.17,420.02-120.51,551.94-208.57c-46.32-99.32-114.24-542.96-168.98-536.85c-40.72,4.55,35.47,223.95-23.64,450.71
							c-27.91,107.1-125.52,203.69-213.37,221.97c-321.92,67.01-569.45,23.95-715.76-27.74
							c-117.56-41.54-204.76-143.6-226.31-267.17c-0.11-0.66-0.22-1.31-0.34-1.96c-17.72-103.33-13.19-210.12,14.27-312.92
							c0,0,22.42-23.02,68.28-56.03c-141.7,70.72-209.68,140.57-209.68,140.57c-15.15,56.7-23.29,114.62-24.6,172.49
							C1183.94,2163.19,1187.35,2199.47,1193.51,2235.33z"/>
					</g>
				</g>
				<g>
					<path class="st6" d="M2552.24,2451.56c29.07-245.33,6.32-494.16-66.73-730.07c262.26,75.3,415.8,211.12,479.74,279.19
						c22.57,24.03,25.97,60.35,8.14,88.13C2922.9,2167.42,2796.56,2329.25,2552.24,2451.56z"/>
				</g>
				<g class="st5">
					<path class="st1" d="M2965.25,2000.67c-63.95-68.07-217.49-203.89-479.74-279.19c4.74,15.31,9.26,30.68,13.58,46.09
						c244.35,76.69,388.82,204.83,450.33,270.3c15.16,16.14,21.63,37.84,18.86,58.76c1.79-2.69,3.49-5.32,5.11-7.84
						C2991.22,2061.02,2987.82,2024.7,2965.25,2000.67z"/>
				</g>
				<g>
					<g class="st2">
						<path class="st3" d="M2556.41,2412.17c245.24-126.82,367.71-292.39,412.64-365.12c0.07-0.07,0.13-0.15,0.19-0.23
							c-49.06,55.77-118.43,120.07-204.28,180.86c-51.5,36.47-122.7,2.99-129.09-60.07c-15.48-152.82-61.74-275.99-130.86-440.32
							c-6.44-2-12.98-3.94-19.55-5.81C2554.66,1944.78,2578.7,2179.64,2556.41,2412.17z"/>
					</g>
				</g>
				<g>
					<path class="st3" d="M2552.24,2468.58c-3.43,0-6.84-1.05-9.74-3.12c-5.07-3.6-7.78-9.72-7.04-15.93
						c28.98-244.56,6.74-487.82-66.09-723c-1.85-5.97-0.3-12.47,4.04-16.94s10.76-6.18,16.72-4.48
						c263.26,75.6,418.55,210.49,487.69,284.17c27.81,29.64,31.89,74.25,9.91,108.5c-54.62,85.14-182.85,246.3-427.97,369
						C2557.37,2467.98,2554.8,2468.58,2552.24,2468.58z M2510.75,1746.83c63.99,220.16,84.73,446.98,61.72,675.16
						c219.85-116.99,336.23-263.71,386.87-342.66c13.5-21.05,11-48.46-6.08-66.66C2889.15,1944.34,2748.12,1821.45,2510.75,1746.83z
						"/>
				</g>
				<g>
					<path class="st3" d="M1859.59,2623.81c-163.65,0-293.55-25.4-384.52-51.9c-149.45-43.53-227.75-98.18-231.01-100.48
						c-2.38-1.68-4.28-3.94-5.53-6.58c-37.98-79.89-61.32-165.1-69.39-253.25c-8.06-88.17-0.55-176.23,22.32-261.71
						c0.76-2.82,2.22-5.4,4.25-7.48c2.79-2.87,69.87-70.96,208.92-141.22c127.57-64.46,342.62-142.77,642.61-149.72
						c157.25-3.62,306.28,14.39,442.91,53.65c5.48,1.57,9.8,5.82,11.5,11.3c74.23,239.72,96.91,487.63,67.41,736.91
						c-0.59,5.73-4.02,10.89-9.28,13.51c-127.2,63.7-270.45,108.85-425.74,134.17C2034.34,2617.27,1942.6,2623.81,1859.59,2623.81z
						 M1267.02,2445.94c16.71,10.88,91.88,56.92,219.18,93.78c133.5,38.66,353.34,74.85,642.43,27.7
						c148.6-24.23,285.78-66.94,407.89-126.97c27.01-238.45,5.35-475.55-64.44-705.09c-130.96-36.58-273.54-53.34-424.06-49.85
						c-528.99,12.27-794.15,248.39-825.11,277.77c-20.89,80.15-27.65,162.63-20.1,245.22
						C1210.34,2291.06,1231.95,2370.93,1267.02,2445.94z"/>
				</g>
				<g>
					<path class="st3" d="M1253.81,2474.53c-0.74,0-1.47-0.05-2.22-0.14l-80.96-10.66c-42.86-5.65-79.03-34.42-94.41-75.09
						c-40.25-106.43-50.79-221.9-30.53-333.93c7.75-42.82,38.1-77.76,79.21-91.18l77.67-25.37c8.88-2.91,18.41,1.99,21.29,10.93
						c2.88,8.94-1.98,18.54-10.85,21.44l-77.67,25.37c-29.26,9.56-50.88,34.43-56.39,64.92c-19.16,105.92-9.19,215.09,28.85,315.72
						c10.95,28.95,36.7,49.44,67.21,53.46l80.95,10.66c9.25,1.22,15.77,9.76,14.57,19.08
						C1269.43,2468.29,1262.17,2474.53,1253.81,2474.53z"/>
				</g>
				<g>
					<path class="st12" d="M33.45,2316.92c366.57-33.98,501.75,205.9,734.2,184.35s257.7-276.29,257.7-276.29
						s-71-245.83-303.45-224.28C489.43,2022.25,400.02,2282.94,33.45,2316.92z"/>
				</g>
				<g>
					<path class="st12" d="M33.45,2316.92c366.57-33.98,501.75,205.9,734.2,184.35s257.7-276.29,257.7-276.29
						s-71-245.83-303.45-224.28C489.43,2022.25,400.02,2282.94,33.45,2316.92z"/>
				</g>
				<g class="st9">
					<g>
						<path class="st1" d="M200,2320.45c250.59-77.35,344.84-269.48,543.01-287.85c123.03-11.4,200.82,52.08,246.81,114.38
							c-41.49-69.93-123.57-159.66-267.92-146.28c-232.45,21.55-321.87,282.24-688.44,316.22
							C94.97,2311.22,149.95,2313.25,200,2320.45z"/>
					</g>
				</g>
				<g>
					<path class="st13" d="M402.25,2281.45c213.41-19.78,295.1,152.65,430.43,140.1c135.33-12.54,147.03-193.63,147.03-193.63
						s-44.33-175.89-179.66-163.35C664.72,2077.12,615.66,2261.67,402.25,2281.45z"/>
				</g>
				<g>
					<path class="st3" d="M738.33,2519.65c-94.13,0-174.25-39.93-258.6-81.96C364.69,2380.37,234.3,2315.42,35,2333.87
						c-9.31,0.86-17.52-6.02-18.38-15.38c-0.05-0.53-0.07-1.06-0.07-1.58c0-8.7,6.59-16.11,15.36-16.92
						c199.3-18.48,315.73-106.32,418.44-183.83c83.41-62.94,162.2-122.4,270.02-132.38c100.93-9.41,188.67,28.8,253.63,110.35
						c48.35,60.7,66.83,123.47,67.6,126.11c0.6,2.1,0.81,4.28,0.59,6.45c-0.28,2.73-7.07,67.85-43.61,136.42
						c-49.09,92.12-128.4,145.77-229.36,155.12C758.74,2519.19,748.44,2519.65,738.33,2519.65z M192.51,2302.18
						c123.2,15.8,216.76,62.44,302.19,105c92.89,46.28,173.07,86.26,271.39,77.14c90.04-8.35,158.06-54.22,202.17-136.37
						c29.21-54.39,38-107.79,39.86-121.38c-4.28-13-22.6-63.9-61.19-112.02c-58.27-72.65-133.42-105.21-223.49-96.91
						c-98.29,9.11-169.91,63.16-252.84,125.73C394.33,2200.93,310.77,2263.98,192.51,2302.18z"/>
				</g>
				<g>
					<path class="st6" d="M1265.32,2298.91c-111.96,10.35-230.36-68.68-230.36-68.68s0.39-0.38,1.11-1.04
						c11.32-10.71,107.76-99.06,212.89-108.86c100.89-9.38,188.68,56.59,204.12,68.95c1.58,1.27,2.4,1.97,2.4,1.97
						S1376.53,2288.65,1265.32,2298.91z"/>
				</g>
				<g class="st9">
					<g>
						<path class="st1" d="M1034.97,2230.23c0,0,5.03,3.37,13.99,8.58c46.36-34.73,122.05-81.4,202.05-88.85
							c79.13-7.35,151.28,25.2,195.36,51.51c5.95-6.32,9.12-10.23,9.12-10.23s-0.81-0.7-2.39-1.96
							c-15.46-12.37-103.25-78.33-204.13-68.95c-105.12,9.81-201.59,98.16-212.91,108.85
							C1035.37,2229.84,1034.97,2230.23,1034.97,2230.23z"/>
					</g>
				</g>
				<g class="st11">
					<path class="st8" d="M1265.32,2298.91c-111.96,10.35-230.36-68.68-230.36-68.68s0.39-0.38,1.11-1.04l417.02-39.91
						c1.58,1.27,2.4,1.97,2.4,1.97S1376.53,2288.65,1265.32,2298.91z"/>
				</g>
				<g>
					<path class="st3" d="M1244.55,2316.87c-109.03,0-214.21-69.32-218.93-72.46c-4.27-2.85-7.02-7.5-7.49-12.63
						c-0.47-5.14,1.4-10.21,5.07-13.79c4.34-4.24,107.7-103.76,224.23-114.59c116.9-10.9,214.86,71.35,218.98,74.86
						c7.03,5.99,7.99,16.56,2.17,23.75c-3.41,4.21-84.78,103.04-201.72,113.85C1259.42,2316.55,1251.97,2316.87,1244.55,2316.87z
						 M1063.57,2227.58c36.99,20.78,121.23,61.69,200.2,54.41c78.75-7.28,141.41-62.64,166.63-88.41
						c-29.45-20.69-101.11-63.57-179.85-56.29C1171.58,2144.63,1096.17,2200.34,1063.57,2227.58z M1034.96,2230.23h0.05H1034.96z"/>
				</g>
				<g>
					<ellipse class="st6" cx="1969.69" cy="2139.28" rx="208.06" ry="209.52"/>
				</g>
				<g class="st2">
					<path class="st3" d="M1988.74,2347.9c-114.39,10.6-215.72-74.17-226.25-189.4c-3.3-36.24,2.77-71.17,16.21-102.37
						c-2.03,15.35-2.42,31.13-0.96,47.23c10.53,115.24,111.82,200.05,226.26,189.45c78.45-7.28,142.71-57.57,171.9-125.56
						C2163.36,2261.93,2087.24,2338.76,1988.74,2347.9z"/>
				</g>
				<g>
					<path class="st3" d="M1969.29,2365.83c-52.38,0-102.65-18.22-143.43-52.36c-46.21-38.69-74.68-93.17-80.19-153.43
						c-11.37-124.39,79.87-234.9,203.4-246.35c123.48-11.48,233.26,80.43,244.64,204.81c5.5,60.26-12.62,119.07-51.04,165.59
						s-92.52,75.21-152.36,80.75C1983.28,2365.51,1976.27,2365.83,1969.29,2365.83z M1969.82,1946.77c-5.85,0-11.73,0.27-17.66,0.82
						c-104.97,9.74-182.5,103.65-172.83,209.34c4.68,51.2,28.88,97.51,68.14,130.38c39.26,32.88,88.88,48.37,139.74,43.67l0,0
						c50.84-4.71,96.83-29.09,129.47-68.62c32.65-39.54,48.05-89.52,43.37-140.72C2150.93,2021.91,2067.4,1946.77,1969.82,1946.77z"
						/>
				</g>
				<g>
					<ellipse class="st14" cx="1971.9" cy="2136.57" rx="132.37" ry="133.3"/>
				</g>
				<g class="st2">
					<g>
						<path class="st1" d="M1984.06,2269.32c-72.81,6.74-137.23-47.22-143.93-120.53c-1.47-15.86-0.09-31.38,3.74-45.95
							c0.07,1.48,0.19,2.95,0.32,4.46c6.7,73.32,71.13,127.28,143.93,120.53c57.04-5.27,102.27-46.25,115.96-98.99
							C2108.25,2200.29,2055.35,2262.7,1984.06,2269.32z"/>
					</g>
				</g>
				<g class="st5">
					<path class="st8" d="M2098.44,2180.98c-0.12-2.28-0.24-4.56-0.46-6.88c-6.7-73.32-71.13-127.28-143.93-120.53
						c-54.8,5.06-98.73,43.1-114.19,92.85c-2.85-70.46,49.65-131.53,120.16-138.07c72.75-6.74,137.22,47.17,143.92,120.49
						C2105.57,2146.99,2103.57,2164.64,2098.44,2180.98z"/>
				</g>
				<g>
					<path class="st3" d="M1971.81,2286.88c-76.18,0-141.4-58.66-148.52-136.54c-7.54-82.53,53-155.85,134.95-163.45
						c39.72-3.7,78.45,8.42,109.11,34.09c30.66,25.67,49.56,61.82,53.21,101.8c3.66,39.98-8.37,79-33.86,109.88
						c-25.49,30.87-61.39,49.91-101.1,53.58l0,0C1980.98,2286.67,1976.38,2286.88,1971.81,2286.88z M1972.14,2020.29
						c-3.58,0-7.18,0.16-10.79,0.49c-63.4,5.88-110.23,62.6-104.39,126.44c2.83,30.93,17.44,58.9,41.16,78.75
						c23.72,19.86,53.7,29.21,84.4,26.38l0,0c30.71-2.85,58.49-17.57,78.21-41.45s29.02-54.07,26.19-85s-17.44-58.9-41.16-78.75
						C2024.82,2029.63,1999.02,2020.29,1972.14,2020.29z"/>
				</g>
				<g>
					<path class="st15" d="M1994.87,1644.88c0.11-0.72,0.2-1.44,0.28-2.17c0,0.09,0,0.21-0.02,0.33
						C1995.05,1643.64,1994.98,1644.27,1994.87,1644.88z"/>
				</g>
				<g>
					<g class="st2">
						<path class="st3" d="M757.09,2469.37c218.64-20.26,253.97-246.81,257.39-273.67c-10.98-25.87-30.89-65.05-62.57-101.63
							l-7.84,2.56c0,0,112.82,394.75-564.99,247.53C516.33,2403.56,619.73,2482.1,757.09,2469.37z"/>
					</g>
				</g>
			</g>
		</g>
		<g>
			<path class="st1" d="M1357.06,1632.68c0,0-193.82,3.57-222.06-63.77c-41.5-99,10.03-412.93,68.54-486.56
				c56.84-71.52,275.48-44.25,275.48-44.25L1357.06,1632.68z"/>
		</g>
		<g class="st2">
			<path class="st3" d="M1135,1568.91c28.24,67.34,222.07,63.77,222.07,63.77l18.27-129.67c0,0-193.83,3.56-222.07-63.77
				c-15.75-37.59-18.4-106.47-12.27-181.38C1117.91,1373.46,1110.23,1509.8,1135,1568.91z"/>
		</g>
		<g>
			<path class="st3" d="M1349.1,1649.77c-41.97,0-200.5-4.67-229.67-74.24c-44.65-106.47,8.92-425.81,70.92-503.81
				c60.97-76.72,267.4-53.41,290.74-50.51l18.17,2.26l-128.4,625.97l-13.51,0.25C1355.65,1649.73,1352.83,1649.77,1349.1,1649.77z
				 M1357.06,1632.68h0.05H1357.06z M1388.24,1049.94c-66.81,0-144.31,8.83-171.5,43.05c-54.81,68.95-105.61,375.24-66.17,469.31
				c16.24,38.74,121.53,52.91,192.71,53.44l115.41-562.68C1439.39,1051.32,1414.65,1049.94,1388.24,1049.94z"/>
		</g>
		<g>
			<path class="st1" d="M1265.45,1354.35l-84.01-13.88c-16.21-2.68-31.64,8.13-34.65,24.4c-7.88,42.46-16.71,118.15,16.22,134.53
				c46.36,23.06,94.6,15.55,107.07,2.97c18.44-18.59,20.91-82,20.75-118.15C1290.77,1369.37,1280.02,1356.75,1265.45,1354.35z"/>
		</g>
		<g class="st2">
			<path class="st3" d="M1163.04,1499.41c46.36,23.05,94.57,15.56,107.07,2.95c11.8-11.9,17.06-42.12,19.28-71.86
				c-1.79,3.46-3.8,6.39-6.04,8.66c-12.5,12.56-60.7,20.07-107.06-2.99c-22.16-11.01-25.41-48.9-22.76-85.44
				c-3.32,3.92-5.72,8.71-6.72,14.13C1138.92,1407.34,1130.08,1483.03,1163.04,1499.41z"/>
		</g>
		<g>
			<path class="st3" d="M1226.06,1530.35c-21.82,0-46.69-5.04-70.05-16.65c-32.16-16-40.5-67.05-24.78-151.76
				c4.56-24.57,28.27-41.25,52.78-37.21l84.01,13.88l0,0c22.3,3.68,38.55,22.83,38.65,45.54c0.32,68.64-8.23,112.2-25.37,129.49
				C1270.97,1524.07,1250.42,1530.35,1226.06,1530.35z M1176.57,1356.01c-6.81,0-12.93,4.9-14.2,11.78
				c-14.23,76.69-4.77,111.12,7.67,117.3c41.67,20.73,82.33,12.57,88.85,6c7.63-7.69,16.42-40.27,16.11-106.81
				c-0.03-7.08-5.13-13.06-12.11-14.21l0,0l-84.01-13.88C1178.12,1356.09,1177.34,1356.01,1176.57,1356.01z"/>
		</g>
		<g>
			<path class="st3" d="M1246.13,1073.58c12.85-5.73,26.57-9.78,40.54-12.21c13.98-2.52,28.18-3.43,42.21-3.72
				c14.01-0.29,27.94,0.25,41.12,0.12c6.55-0.07,12.93-0.39,18.43-1.3c5.51-0.81,9.74-2.8,10.74-4.23
				c5.57-8.02,16.54-9.98,24.51-4.37c7.96,5.61,9.91,16.66,4.34,24.69c-1.43,2.06-3.21,3.7-5.2,4.94l-4.18,2.56
				c-10.38,6.37-20.09,7.02-28.08,7.16c-8.12-0.01-15.42-0.9-22.46-1.92c-14.03-2.1-27.22-4.72-40.45-6.53
				c-13.19-1.82-26.37-3.03-39.55-2.76c-13.18,0.21-26.34,1.91-39.22,5.36l-0.05,0.01c-2.2,0.59-4.45-0.73-5.04-2.94
				C1243.29,1076.44,1244.3,1074.38,1246.13,1073.58z"/>
		</g>
		<g>
			<path class="st1" d="M2076.41,1628.74c-25.01,33.35-75.49,41.99-103.04,49.09c-49.01,12.68-65.9,28.63-65.9,28.63
				c100.79,115.71,24.25,246.44-7.9,300.72c0,0,81.99,113.25,24.67,208.36c-51.2,84.91-179.03,50.03-219.2-17.02
				c-31.68-52.92-54.88-101.63-62.43-194.28c-11.54-142.05-152.46-148.81-218.27-225c-71.86-83.12-86.68-221.81-56.78-395.28
				c10.69-62.28,27.21-128.98,48.87-199.26c8.75-28.38,18.38-57.3,28.77-86.74c1.05-2.93,2.07-5.83,3.12-8.76
				c18.71-52.32,40-106.23,63.58-161.35c0,0,594.59,88.32,579.38,153.45c-10.22,43.9-13.4,87.16-12.63,129.33
				c0.55,29.69,3.04,58.83,6.46,87.16C2101.08,1431.68,2136.41,1548.72,2076.41,1628.74z"/>
		</g>
		<g class="st2">
			<path class="st3" d="M1394.21,1505.15c-10.52-3.96-20.19-8.34-28.81-13.23c0,0-4.9,1.19-11.19,5.06
				c8.87-156.93,65.53-353.64,157.7-569.15c0,0,6.3,0.94,17.57,2.68C1439.49,1152.74,1389.65,1352.34,1394.21,1505.15z"/>
		</g>
		<g>
			<path class="st3" d="M1831.75,2282.63c-0.07,0-0.15,0-0.22,0c-56.47-0.08-114.43-31.06-140.95-75.34
				c-29.51-49.27-56.67-101.77-64.8-201.66c-6.79-83.41-62.74-114.99-121.98-148.4c-33.09-18.67-67.31-37.97-92.22-66.82
				c-123.79-143.27-93.67-452,84.81-869.31c3.03-7.08,10.39-11.24,17.98-10.11c1.34,0.21,135.49,20.2,273.17,47.75
				c284.5,56.93,306.85,90.05,315.28,102.52c6.44,9.55,6.24,18.25,4.93,23.86c-23.41,100.27-8.4,199.42,4.84,286.89
				c15.99,105.66,29.8,196.91-22.68,266.93c-25.77,34.39-71.76,45.49-102.2,52.85c-3.62,0.87-7.02,1.7-10.13,2.5
				c-21.16,5.47-35.7,11.53-45.01,16.28c85.35,114.89,20.04,239.45-13.02,296.03c19.31,30.77,72.22,129.66,19.13,217.73
				C1916.02,2261.94,1878.05,2282.63,1831.75,2282.63z M1522.3,946.64c-168.56,398.47-198.88,689.91-85.22,821.44
				c21.06,24.38,51.27,41.42,83.25,59.47c61.35,34.61,130.88,73.84,139.14,175.31c7.54,92.65,31.66,139.44,60.05,186.86
				c20.4,34.05,67.52,58.82,112.05,58.88c0.06,0,0.11,0,0.17,0c24.13,0,57.17-7.29,78.04-41.92
				c50.71-84.12-23.13-188.49-23.88-189.54c-3.96-5.51-4.31-12.88-0.85-18.72c30.8-51.98,102.94-173.72,9.71-280.77
				c-6.01-6.9-5.5-17.35,1.14-23.64c2.05-1.93,21.56-19.33,73.27-32.68c3.26-0.84,6.83-1.71,10.65-2.63
				c25.74-6.21,64.64-15.61,83.1-40.25c43.9-58.58,31.08-143.26,16.24-241.3c-13.61-89.9-29.02-191.7-4.83-297.59
				c-5.63-7.65-42.87-37.02-288.58-86.48C1671.94,970.2,1559.53,952.38,1522.3,946.64z"/>
		</g>
		<g>
			<path class="st1" d="M1547.7,1133.66c0,0-165.7-51.35-217.43-91.8c-34.36-26.88-57.7-51.24-83.86-102.49
				c-36.34-71.17-81.04-133.11-139-124.07c-25.3,3.95-32.51,27.92-32.51,27.92s-23.25-2.4-40.57,10.6
				c-19.31,14.49-20.28,42.72-20.28,42.72s-25.62,10.47-31.42,46.05c-14.98,91.88,38.42,231.79,153.02,331.05
				c97.73,84.65,253.63,115.38,253.63,115.38L1547.7,1133.66z"/>
		</g>
		<g class="st2">
			<path class="st3" d="M1391.38,1385.68l-2.07,3.34c0,0-155.88-30.71-253.64-115.37c-114.61-99.25-168.01-239.16-153.01-331.05
				c5.79-35.6,31.43-46.07,31.43-46.07s0.97-28.2,20.28-42.71c17.32-12.97,40.55-10.59,40.55-10.59s0.3-0.94,0.97-2.51
				c-0.67,4-0.76,6.55-0.76,6.55s-37.53,4.35-45.72,65.16c-12.43,92.27,52.69,212.68,167.31,311.92
				c51.07,44.23,117.98,73.74,170.27,91.82C1395.43,1326.01,1407.33,1359.97,1391.38,1385.68z"/>
		</g>
		<g>
			<path class="st3" d="M1546.05,1139.08c-13.46-0.05-26.36-1.83-39.11-4.27c-12.75-2.41-25.23-5.72-37.54-9.56
				c-24.67-7.58-48.89-16.7-72.62-27.47l-17.75-8.32l-17.65-8.87c-11.72-6.42-23.45-12.47-35.13-20.84
				c-6.13-4.16-11.06-8.15-16.22-12.42c-5.16-4.19-10.22-8.66-15.22-13.22c-9.94-9.23-19.4-19.33-27.89-30.09
				c-8.46-10.8-16.01-22.16-22.82-33.73c-6.82-11.5-12.93-23.7-18.62-34.49c-11.82-21.98-24.55-43.43-39.59-62
				c-7.41-9.4-15.59-17.79-24.27-24.81c-8.68-7-17.97-12.51-27.52-15.32l-7.21-1.55c-2.41-0.36-4.85-0.32-7.27-0.58
				c-4.74,0.11-10.32,0.42-13.37,1.52c-3.46,1.15-6.5,2.95-9.15,5.77c-1.35,1.35-2.57,2.97-3.64,4.71
				c-0.55,0.85-1.04,1.78-1.47,2.66c-0.24,0.45-0.4,0.87-0.6,1.31c-0.12,0.28-0.4,1.06-0.26,0.63l-17.9,12l-1.56-0.06l-2.12-0.01
				c-1.45,0.03-2.92,0.11-4.39,0.26c-2.92,0.28-5.81,0.76-8.48,1.5c-5.37,1.42-10.13,3.77-13.45,6.72
				c-3.4,2.81-6.19,7.14-8.36,12.26c-1.08,2.57-1.92,5.39-2.6,8.26c-0.34,1.43-0.62,2.91-0.84,4.35c-0.22,1.3-0.41,3.22-0.43,3.72
				l-10.54,15.19c0.53-0.23-0.36,0.19-0.66,0.37c-0.48,0.3-0.96,0.54-1.47,0.9c-1,0.64-2.04,1.39-3.03,2.22
				c-2,1.6-3.89,3.48-5.55,5.54c-3.38,4.1-6.07,8.88-7.92,14.24c-0.87,2.7-1.65,5.47-2.16,8.39c-0.6,2.89-0.8,6.64-1.24,9.91
				c-1.04,6.71-0.99,13.66-1.15,20.58c-0.16,27.77,5.18,56.08,13.64,83.38c16.96,54.81,46.89,105.7,83.81,149.95
				c18.37,22.2,39.41,42.56,61.45,60.53c22.17,17.77,46.79,32.92,72.53,46.11c6.52,3.16,12.92,6.55,19.54,9.52
				c6.65,2.92,13.21,6.04,19.93,8.81c13.42,5.63,27.27,10.18,41.14,14.62c13.88,4.4,27.55,9.43,41.2,14.77
				c13.56,5.61,27,12.02,39.92,21.3l0.21,0.15c2.73,1.96,3.36,5.78,1.41,8.52c-0.94,1.33-2.32,2.16-3.8,2.45
				c-16.25,3.15-31.67,2-46.77-0.57c-15.04-2.77-29.73-6.99-44.02-12.36c-14.28-5.41-28.24-11.64-42.36-17.49
				c-7.04-2.95-13.99-6.21-20.99-9.29c-6.98-3.14-13.79-6.73-20.7-10.09c-27.34-14.01-53.86-30.25-78.33-49.85
				c-24.24-19.75-46.33-41.24-66.16-65.12c-39.58-47.48-71.69-101.87-90.29-161.83c-9.25-29.93-15.3-61.28-15.17-93.58
				c0.16-8.09,0.16-16.16,1.37-24.32c0.55-4.15,0.74-7.94,1.61-12.4c0.8-4.47,2.02-8.93,3.48-13.36
				c3.04-8.83,7.71-17.35,13.86-24.79c3.05-3.73,6.49-7.17,10.31-10.24c1.89-1.56,3.88-3.01,6.01-4.38c1.03-0.7,2.18-1.36,3.31-2
				c1.33-0.71,2.08-1.17,4.33-2.14l-10.54,15.19c0.17-3.32,0.44-5.2,0.8-7.68c0.35-2.34,0.79-4.63,1.33-6.92
				c1.07-4.56,2.44-9.1,4.31-13.59c3.74-8.9,9.24-17.94,17.53-25c8.19-7.11,17.59-11.34,26.86-13.83c4.66-1.26,9.3-2.04,13.94-2.48
				c2.32-0.22,4.65-0.35,6.99-0.4l3.57,0.01c1.3,0.03,2.25,0.06,4.13,0.23l-17.89,12c0.62-1.96,0.95-2.67,1.42-3.89
				c0.45-1.03,0.9-2.1,1.39-3.07c0.96-1.99,2-3.91,3.16-5.76c2.29-3.71,4.95-7.24,8.1-10.45c6.13-6.52,14.3-11.64,22.95-14.43
				c2.16-0.78,4.34-1.27,6.53-1.71c2.29-0.56,4.19-0.68,6.14-0.84c3.92-0.23,7.81-0.9,11.75-0.63c3.93,0.29,7.91,0.37,11.79,0.96
				c3.84,0.79,7.69,1.59,11.5,2.51c15.03,4.43,28.03,12.41,39.21,21.41c11.19,9.07,20.91,19.23,29.38,29.92
				c8.6,10.65,16.32,21.71,23.34,33.02c7.18,11.27,13.58,22.8,19.83,34.37c6.26,11.9,11.65,22.67,17.91,33.23
				c6.19,10.53,12.87,20.56,20.23,29.94c7.38,9.35,15.49,18,24.29,26.19c4.46,4.06,8.99,8.06,13.76,11.95
				c4.7,3.9,9.73,7.93,14.22,10.9c9.14,6.52,20.17,12.26,31.08,17.67l16.89,7.71l17.26,7.25c23.21,9.4,46.7,18.56,70.04,28.39
				c23.38,9.74,46.53,20.38,68.44,35.32c2.7,1.83,3.41,5.51,1.59,8.23C1549.83,1138.15,1547.93,1139.07,1546.05,1139.08z"/>
		</g>
		<g>
			<path class="st15" d="M1918.27,1645.86c0.11-0.72,0.2-1.44,0.28-2.17c0,0.09,0,0.21-0.02,0.33
				C1918.46,1644.63,1918.39,1645.26,1918.27,1645.86z"/>
		</g>
		<g>
			<path class="st1" d="M2030.86,1620.21c-25.71,1.39-54.52,2.46-85.47,2.89c18.43,1.09,35.43,1.85,50.58,2.4
				C2008.09,1625.89,2019.91,1624.06,2030.86,1620.21z"/>
		</g>
		<g>
			<ellipse class="st1" cx="2093.12" cy="1530.47" rx="48.01" ry="48.34"/>
		</g>
		<g class="st2">
			<path class="st3" d="M2141.09,1532.62c-1.18,26.67-23.59,47.35-50.09,46.15c-26.48-1.19-47.02-23.8-45.83-50.47
				c0.33-7.37,2.28-14.32,5.52-20.44c6.97,16.66,23.01,28.73,42.15,29.58c19.13,0.85,36.17-9.72,44.56-25.68
				C2140.09,1518.15,2141.42,1525.24,2141.09,1532.62z"/>
		</g>
		<g>
			<path class="st3" d="M2093.18,1592.09c-0.92,0-1.84-0.02-2.77-0.06c-33.71-1.52-59.92-30.38-58.41-64.32
				c1.51-33.95,30.15-60.29,63.87-58.82c33.71,1.52,59.91,30.38,58.41,64.32C2152.82,1566.24,2125.67,1592.09,2093.18,1592.09z
				 M2093.13,1495.41c-18.48,0-33.93,14.71-34.75,33.49c-0.86,19.31,14.04,35.72,33.22,36.58c19.18,0.9,35.47-14.15,36.33-33.44
				c0.86-19.31-14.04-35.72-33.21-36.58C2094.18,1495.42,2093.65,1495.41,2093.13,1495.41z"/>
		</g>
		<g class="st2">
			<path class="st3" d="M2091.67,1634.73c0.47,30.29-23.79,55.39-53.82,55.82l-143.92,2.15c0,0-42.49-22.79-68.83-26.04
				s-49.45-0.99-49.45-0.99c-30.04,0.47-46.57,4.72-47-25.57l-0.04-2.89c-0.76,1.02-1.23,1.53-1.23,1.53
				c-121.27,29.67-159.33,31.05-210.88,16.21c-30.83-8.87-62.55,15.16-60.48,47.38c0.55,8.54,3.4,16.78,9.23,23.53
				c65.82,76.19,206.75,82.95,218.27,225c7.57,92.65,30.75,141.37,62.43,194.29c35.02,58.45,160.49,70.49,198.33-14.55
				c1.56,27.7-3.3,57.09-20.06,84.95c-51.2,84.91-179.03,50.03-219.2-17.02c-31.68-52.92-54.88-101.63-62.43-194.29
				c-11.54-142.05-152.46-148.81-218.27-225c-37.81-43.78-59.86-102.99-67.88-174.55c-3.72-33.31-4.39-69.3-2.24-107.72
				c6.3-3.87,11.19-5.06,11.19-5.06c8.62,4.89,18.3,9.27,28.81,13.23c115.58,43.69,332.47,35.4,332.47,35.4
				c0.21,0.12,0.38,0.3,0.55,0.42l-0.55-36.84c-0.38-26.51,18.12-49.05,42.92-54.53c3.5-0.81,7.14-1.23,10.9-1.27l253.72-3.78
				c30.08-0.46,55.04,23.9,55.43,54.19l1.6,107.72L2091.67,1634.73z"/>
		</g>
		<g>
			<path class="st1" d="M2037.84,1648.01l-253.75,3.77c-30.04,0.45-54.99-23.93-55.44-54.21l-1.98-135.98
				c-0.39-26.52,18.14-49.05,42.93-54.55c3.51-0.8,7.16-1.21,10.9-1.27l253.71-3.77c30.07-0.45,55.03,23.93,55.44,54.21l1.59,107.7
				l0.43,28.28C2092.13,1622.46,2067.87,1647.56,2037.84,1648.01z"/>
		</g>
		<g class="st2">
			<path class="st3" d="M2037.84,1648.01l-253.75,3.77c-30.04,0.45-54.99-23.93-55.44-54.21l-1.98-135.98
				c-0.39-26.52,18.14-49.05,42.93-54.55c14.55,9.42,23.79,15.45,23.79,15.45c13.96,108.97,45.62,162.94,180.24,163.15
				c58.11,0.08,94.65-9.39,117.62-21.73l0.43,28.28C2092.13,1622.46,2067.87,1647.56,2037.84,1648.01z"/>
		</g>
		<g>
			<path class="st3" d="M1783.28,1665.09c-36.95,0-67.27-29.99-67.82-67.31l-2-136c-0.55-37.67,29.42-68.76,66.83-69.32l253.73-3.77
				c37.18-0.61,68.28,29.63,68.83,67.3l2,136c0.55,37.67-29.42,68.76-66.83,69.32l-253.73,3.77l0,0
				C1783.96,1665.09,1783.62,1665.09,1783.28,1665.09z M1784.1,1651.8h0.05H1784.1z M2035.04,1415.26c-0.2,0-0.42,0-0.62,0
				l-253.73,3.77c-22.85,0.34-41.17,19.34-40.83,42.35l2,136c0.34,23.01,19.08,41.24,42.05,41.11l253.73-3.77
				c22.85-0.34,41.17-19.34,40.83-42.35l-2-136c-0.16-11.08-4.65-21.49-12.62-29.28
				C2056.03,1419.45,2045.82,1415.26,2035.04,1415.26z"/>
		</g>
		<g>
			<path class="st1" d="M2048.01,1646.86c-3.28,0.74-6.66,1.12-10.17,1.16l-253.75,3.77c-22.01,0.32-41.29-12.67-50.18-31.59
				c-3.25-6.88-5.13-14.54-5.22-22.62l-0.91-60.41l-0.3-19.94l-0.82-55.64c-0.45-30.28,23.8-55.37,53.84-55.83l54.83-0.8
				c-25.2,5.17-44.12,27.89-43.74,54.68l1.05,73.45l0.93,62.56c0.45,30.25,25.41,54.67,55.44,54.21L2048.01,1646.86z"/>
		</g>
		<g class="st2">
			<path class="st3" d="M2048.01,1646.86c-3.28,0.74-6.66,1.12-10.17,1.16l-253.75,3.77c-30.04,0.45-54.99-23.93-55.41-54.21
				l-1.2-80.34c6.6,14.11,18.32,31.36,36.68,32.91c10.08,0.87,19.88-6.57,28.47-17.06l0.93,62.56
				c0.45,30.25,25.41,54.67,55.44,54.21L2048.01,1646.86z"/>
		</g>
		<g>
			<path class="st3" d="M1783.23,1665.09c-17.65,0-34.37-6.85-47.15-19.35c-13.04-12.75-20.36-29.78-20.61-47.98l-1.99-135.99
				c-0.57-37.64,29.4-68.75,66.82-69.33l54.82-0.8c0.06,0,0.13,0,0.19,0c6.73,0,12.39,5.1,13.12,11.85
				c0.74,6.83-3.81,13.08-10.48,14.46c-19.51,4.02-33.47,21.47-33.17,41.48l1.99,136c0.15,11.09,4.64,21.49,12.61,29.29
				c7.97,7.79,18.4,11.79,29.41,11.82l199.03-2.98c6.94,0,12.54,4.99,13.31,11.78s-3.7,13.06-10.32,14.51
				c-4.21,0.92-8.53,1.4-12.83,1.44l-253.69,3.78C1783.93,1665.09,1783.58,1665.09,1783.23,1665.09z M1791.23,1418.87l-10.54,0.15
				c-22.86,0.36-41.18,19.35-40.83,42.35l1.99,136.01c0,0,0,0,0,0.01c0.15,11.08,4.64,21.48,12.61,29.28
				c7.97,7.79,18.4,11.8,29.41,11.82l12.08-0.19c-9.87-11.97-15.36-26.8-15.58-42.5l-1.99-135.99
				C1778.17,1444.7,1782.91,1430.46,1791.23,1418.87z"/>
		</g>
		<g>
			<path class="st16" d="M1892.65,1527.26c0.04,5.03-6.62,45.69-6.62,45.69s-12.77,0.11-28.45,0.26
				c-19.59,0.17-35.65-20.11-35.89-45.3c-0.22-25.2,15.48-45.77,35.06-45.95c13.22-0.12,28.45-0.26,28.45-0.26
				S1892.58,1519.07,1892.65,1527.26z"/>
		</g>
		<g class="st17">
			<path class="st3" d="M1892.65,1527.26c0.04,5.03-6.62,45.69-6.62,45.69s-12.77,0.11-28.45,0.26
				c-19.59,0.17-35.65-20.11-35.89-45.3c-0.22-25.2,15.48-45.77,35.06-45.95c13.22-0.12,28.45-0.26,28.45-0.26
				S1892.58,1519.07,1892.65,1527.26z"/>
		</g>
		<g>
			<path class="st3" d="M1857.33,1581.18c-23.78,0-43.29-23.78-43.55-53.21c-0.12-13.96,4.04-27.2,11.74-37.29
				c8.14-10.66,19.2-16.59,31.17-16.71l19.87-0.19c0.06,0,0.11,0,0.16,0c8.76,0,16.27,6.26,17.91,14.94
				c3.9,20.68,5.89,33.61,5.93,38.45c0.01,1.3,0.04,4.76-5.32,38.38c-1.41,8.86-8.91,15.35-17.84,15.43l-19.76,0.19
				C1857.55,1581.18,1857.43,1581.18,1857.33,1581.18z M1876.72,1489.74c-0.01,0-0.01,0-0.02,0l-19.87,0.19
				c-6.99,0.06-13.65,3.78-18.76,10.48c-5.55,7.28-8.56,17.02-8.46,27.43c0.18,20.68,12.6,37.4,27.71,37.4c0.06,0,0.12,0,0.18,0
				l19.76-0.19c1.17-0.01,2.15-0.85,2.34-2c4.79-30.07,5.1-35.03,5.11-35.74c-0.04-3.7-2.15-17.01-5.66-35.6
				C1878.85,1490.57,1877.87,1489.74,1876.72,1489.74z"/>
		</g>
		<g>
			
				<ellipse transform="matrix(1 -8.764685e-03 8.764685e-03 1 -13.3159 16.5877)" class="st16" cx="1885.86" cy="1527.53" rx="35.48" ry="45.63"/>
		</g>
		<g class="st18">
			<path class="st1" d="M1921.1,1526.98c0.03,3.31-0.2,6.51-0.71,9.61c-3.39-20.97-17.89-36.68-35.16-36.55
				c-17.04,0.17-31.1,15.71-34.35,36.27c-0.45-2.83-0.68-5.72-0.71-8.68c-0.23-25.21,15.46-45.78,35.06-45.95
				C1904.82,1481.52,1920.87,1501.8,1921.1,1526.98z"/>
		</g>
		<g class="st17">
			<path class="st3" d="M1921.1,1526.98c0.2,25.21-15.46,45.78-35.06,45.95c-19.6,0.17-35.67-20.08-35.89-45.3
				c-0.03-5.23,0.58-10.26,1.82-14.95c4.72,18.32,18.23,31.52,34.07,31.38c15.53-0.13,28.6-13.09,33.25-31
				C1920.42,1517.44,1921.07,1522.13,1921.1,1526.98z"/>
		</g>
		<g>
			<path class="st3" d="M1885.77,1580.92c-11.83,0-22.87-5.73-31.13-16.13c-7.87-9.94-12.28-23.11-12.4-37.07
				c-0.27-29.55,18.98-53.77,42.91-53.99c0.1,0,0.21,0,0.32,0c23.79,0,43.29,23.79,43.55,53.22l0,0
				c0.12,13.95-4.04,27.2-11.74,37.28c-8.14,10.66-19.2,16.59-31.17,16.71C1885.99,1580.92,1885.88,1580.92,1885.77,1580.92z
				 M1885.47,1489.66c-0.06,0-0.12,0-0.18,0c-15.19,0.14-27.4,17.14-27.22,37.91c0.09,10.41,3.28,20.1,8.95,27.27
				c5.23,6.6,12.13,10.11,18.94,10.14c6.99-0.06,13.65-3.78,18.76-10.48c5.54-7.27,8.56-17.01,8.46-27.42l0,0
				C1913,1506.4,1900.58,1489.66,1885.47,1489.66z"/>
		</g>
		<g>
			<path class="st3" d="M1958.95,1658.84c-0.03,0-0.06,0-0.1,0c-5.83-0.05-10.52-4.85-10.46-10.72l0.6-68.81
				c0.17-19.57,10.01-37.61,26.3-48.26c10.59-6.93,16.83-18.65,16.68-31.37l-1.09-96.99c-0.06-5.87,4.6-10.68,10.43-10.75
				c5.86-0.03,10.61,4.64,10.68,10.51l1.09,96.99c0.22,20.04-9.61,38.52-26.3,49.44c-10.34,6.77-16.58,18.21-16.68,30.63l-0.6,68.81
				C1969.45,1654.14,1964.73,1658.84,1958.95,1658.84z"/>
		</g>
		<g>
			<path class="st1" d="M1365.42,1449.38c0,0-33.89,8.37-38.52,52.12c-3.95,37.22,27.25,59.44,27.25,59.44
				s155.64,88.53,373.25,35.25c0,0,50.82-59.6-0.72-98.21C1726.67,1497.99,1468.5,1507.86,1365.42,1449.38z"/>
		</g>
		<g class="st2">
			<path class="st3" d="M1727.38,1596.21c-217.61,53.29-373.25-35.28-373.25-35.28s-31.18-22.2-27.22-59.45
				c0.79-7.31,2.36-13.62,4.51-19.08c7.88,18.76,22.71,29.34,22.71,29.34s155.64,88.51,373.25,35.23c0,0,10.31-12.09,16.95-28.87
				C1763.04,1554.37,1727.38,1596.21,1727.38,1596.21z"/>
		</g>
		<g>
			<path class="st3" d="M1586.64,1629.35c-142.31,0-235.26-51.66-240.29-54.53c-0.47-0.27-0.92-0.56-1.36-0.86
				c-1.58-1.13-38.74-28.16-33.86-74.15c5.75-54.25,48.68-65.47,50.5-65.92c3.9-0.97,8.04-0.39,11.55,1.59
				c97.99,55.58,350.35,46.67,352.88,46.56c3.67-0.05,7.16,0.98,10.06,3.15c17.17,12.86,26.95,29.08,29.07,48.18
				c4.16,37.63-24.55,71.78-25.78,73.22c-2.16,2.53-5.05,4.32-8.28,5.11C1679.05,1624.45,1630.49,1629.35,1586.64,1629.35z
				 M1362.74,1547.49c12.14,6.49,157.73,80.95,355.57,34.48c6.72-9.4,17.3-28.27,15.37-45.2c-0.97-8.57-5.04-16.04-12.42-22.67
				c-39.67,1.13-255.6,4.66-356.91-47.21c-7.15,3.75-19.31,13.43-21.74,36.29C1340.01,1527.99,1359.22,1544.67,1362.74,1547.49z"/>
		</g>
		<g>
			<path class="st3" d="M1765.13,1665.61c5.81-4.7,12.26-7.36,18.81-9.29c3.29-0.94,6.61-1.58,9.94-2.11
				c3.34-0.42,6.71-0.63,10.08-0.78c13.47-0.45,27.14,0.49,40.61,3.25c13.53,2.51,26.87,6.95,39.39,13.26
				c12.76,5.88,24.21,14.41,34.69,23.73c6.98,6.21,7.66,16.94,1.49,23.98c-5.83,6.66-15.69,7.62-22.66,2.45l-1.14-0.86
				c-9.11-6.81-17.96-13.85-28-19.25c-2.44-1.46-4.9-2.91-7.51-4.06l-7.68-3.87c-5.36-2.07-10.6-4.54-16.15-6.32
				c-11.01-3.74-22.49-6.88-34.34-8.7c-11.89-1.75-23.7-3.73-36.97-8.65l-0.1-0.04c-0.82-0.31-1.25-1.22-0.94-2.05
				C1764.73,1666.03,1764.9,1665.79,1765.13,1665.61z"/>
		</g>
		<g class="st2">
			<path class="st3" d="M2124.19,1195.03c-4.01,2.17-8.07,4.26-12.17,6.34c-29.27,8.55-176.33,46.49-372.81,10.81
				c-195.01-43.64-316.03-135.92-339.73-155.19c-5.2-6.13-10.26-12.34-15.21-18.67c5.75-17.27,15.16-27.48,15.16-27.48
				s1.4,1.27,4.27,3.62c23.7,19.27,144.73,111.54,339.73,155.19c196.48,35.69,343.54-2.25,372.81-10.81
				c3.55-1.02,5.32-1.61,5.32-1.61S2127.53,1173.55,2124.19,1195.03z"/>
		</g>
		<g>
			<path class="st19" d="M2429.73,745.37c-37.2,186.14-157.13,334.33-313.47,413.47c-29.27,8.53-176.32,46.48-372.84,10.77
				c-194.98-43.64-315.99-135.92-339.71-155.2c-113.76-133.89-167.42-317.26-130.23-503.39
				c64.26-321.54,375.19-529.69,694.49-464.98C2287.23,110.76,2493.99,423.84,2429.73,745.37z"/>
		</g>
		<g class="st20">
			<path class="st1" d="M1299.88,548.25c64.26-321.54,375.19-529.69,694.49-464.98c144.53,29.29,266,109.5,349.71,218.33
				c-83.48-127.64-215.57-223.01-376.11-255.55c-319.3-64.71-630.23,143.44-694.49,464.98c-35.15,175.88,10.85,349.25,112,480.78
				C1303.01,865.68,1267.96,708.01,1299.88,548.25z"/>
		</g>
		<g>
			<g class="st2">
				<path class="st3" d="M2392.78,756.02c47.71-238.73-53.99-472.77-240.17-603.99c0,0,0-0.01-0.01-0.01
					c44.43,106.07,58.82,226.24,34.57,347.61c-37.19,186.14-157.11,334.33-313.47,413.48c-5.94,1.74-16.83,4.69-31.91,7.99
					c-1.68,0.87-3.35,1.79-5.04,2.64c-29.27,8.54-176.31,46.5-372.84,10.81c-52.57-11.76-99.64-27.11-141-43.57
					c21.76,44.35,48.85,85.88,80.79,123.47c23.73,19.27,144.75,111.55,339.74,155.2c156.6,28.45,281.73,10.13,340.93-2.82
					C2238.21,1087.05,2355.97,940.11,2392.78,756.02z"/>
			</g>
		</g>
		<g>
			<path class="st3" d="M1178.36,1318.57c-5.73,0-11.01-3.79-12.67-9.61c-2.02-7.05,2.02-14.41,9.03-16.45
				c166.29-48.24,168.63-226.4,168.64-233.96c0.02-7.33,5.92-13.27,13.2-13.27h0.01c7.28,0.01,13.18,5.95,13.18,13.28
				c0,2.05-2.14,205.65-187.74,259.49C1180.8,1318.41,1179.57,1318.57,1178.36,1318.57z"/>
		</g>
		<g>
			<path class="st3" d="M1909.09,1201.6c-50.17,0-107.09-4.05-168.66-15.23c-0.22-0.04-0.45-0.08-0.66-0.13
				c-199.11-44.57-323.7-139.91-346.65-158.57c-0.81-0.66-1.55-1.39-2.23-2.18c-122.16-143.77-170.98-332.52-133.95-517.82
				c31.97-159.96,123.88-297.81,258.82-388.14s296.72-122.35,455.57-90.16c158.83,32.19,295.71,124.74,385.43,260.61
				s121.53,298.79,89.55,458.75c-37.03,185.3-154.55,340.32-322.44,425.32c-0.93,0.47-1.9,0.85-2.89,1.14
				C2101.32,1180.91,2022.46,1201.6,1909.09,1201.6z M1746.75,1152.94c189.84,34.42,332.82-1.29,363.32-10.01
				c157.79-80.42,268.22-226.46,303.09-400.92l16.57,3.36l-16.57-3.36c30.19-151.04,0.15-304.89-84.56-433.19
				c-84.71-128.29-213.98-215.69-363.96-246.08c-149.99-30.4-302.78-0.16-430.19,85.14s-214.21,215.46-244.4,366.52
				c-34.87,174.46,10.85,352.14,125.48,487.77C1440.32,1022.09,1558.46,1110.71,1746.75,1152.94z"/>
		</g>
		<g>
			<g>
				<path class="st21" d="M2004.65,1180.49c-21.06-11.45-38.57-24.51-53.01-39.71c-34.68-36.43-51.58-85.01-56.63-152.44
					l100.02,175.34l0.03,0.01L2004.65,1180.49z"/>
			</g>
			<g class="st2">
				<g>
					<path class="st1" d="M2328.22,391.69c-8.12-5.1-17.51-7.4-28.24-6.45c-133.68,12.04-246.78,109.12-298.34,160.96
						c-15.72,15.81-41.5,14.7-55.89-2.35l0,0c0,0,144.69-176.81,328.21-193.34C2299.32,348.24,2317.38,364.28,2328.22,391.69z"/>
				</g>
			</g>
			<g>
				<path class="st22" d="M2154.61,707.48c-6.63-31.58-39.36-73.58-67.73-105.23c-25.62-28.57-21.55-72.96,8.48-96.76
					c52.88-41.88,111.61-66.36,150.64-79.33c23.14-7.69,46.63,10.65,45.14,35.14c-2.32,37.96-12.03,94.61-44.43,154.8
					c-35.05,65.11-87.97,91.27-87.97,91.27"/>
			</g>
			<g>
				<path class="st22" d="M2143.91,618.2c-6.04,11.26-12.65,21.33-19.42,30.34c-11.64-16.24-25.06-32.28-37.6-46.27
					c-25.62-28.57-21.55-72.96,8.46-96.78c30.05-23.81,62-41.99,91.17-55.63c1.46,4.17,2.13,8.76,1.84,13.57
					C2186.03,501.37,2176.33,558,2143.91,618.2z"/>
			</g>
			<g class="st2">
				<g>
					<path class="st1" d="M1573.98,195.91c9.56-0.51,18.89,2.05,27.81,8.11c111.23,75.62,163.64,215.65,183.89,286.14
						c6.18,21.5,29.27,33.07,50.06,25.15l0,0c0,0-41.78-225.21-194.5-329.03C1620.13,171.94,1596.63,177.19,1573.98,195.91z"/>
				</g>
			</g>
			<g>
				<path class="st22" d="M1574.35,556.85c20.97-24.42,69.77-45.25,109.81-59.14c36.13-12.53,53.9-53.37,39.02-88.83
					c-26.18-62.4-65.85-112.42-93.79-142.79c-16.56-17.99-45.93-13.38-56.38,8.78c-16.2,34.35-34.89,88.68-35.42,157.14
					c-0.57,74.07,33.19,122.72,33.19,122.72"/>
			</g>
			<g>
				<path class="st22" d="M1626.58,483.91c-0.11,12.8,0.84,24.83,2.43,36c17.99-8.55,37.44-16.06,55.13-22.2
					c36.14-12.54,53.9-53.37,39.05-88.84c-14.88-35.47-34.12-66.94-53.1-93.09c-3.28,2.94-6.07,6.63-8.13,10.99
					C1645.79,361.14,1627.1,415.44,1626.58,483.91z"/>
			</g>
			<g>
				<path class="st23" d="M2222.94,994.91c-27.85-24.68-40.77-86.18-41.02-115.31c-0.15-16.84-2.34-50.57-4.16-76.11
					c183.45-88.52,219.63-460.3,103.88-449.88c-130.71,11.77-241.71,104.83-294.79,157.42c-46.27-24.06-82.38-30.63-82.38-30.63
					s-35.66-12.15-88.83-13.36c-21.11-71.75-73.6-207.7-182.62-281.81c-96.68-65.72-244.21,280.13-123.71,446.23
					c-13.73,21.3-31.29,48.96-39.34,63.33c-14.23,25.37-55.06,72.93-91.31,80.96c-21.37,4.74-26.35,20.36-16.4,35.65
					c6.39,9.8,18.96,19.49,37.26,26.02c1.44,0.53,2.96,1.03,4.49,1.51c0,0-0.02-0.01-0.1,0.04c-0.02-0.01-0.02-0.01-0.02-0.01
					c-1.33,0.45-12.36,4.11-40.76,13.95c-27.81,9.66-14.08,35.69,20.5,67.16c34.57,31.45,73.47,93.89,82.17,103.89
					c5.09,5.86,31.31,41.16,88.33,78.83c40.56,26.83,96.72,54.88,171.94,74.41l0.02,0.01c180.92,46.96,288.98-2.9,301.4-7.43
					c12.43-4.51,76.45-40.24,121.83-50.93c45.36-10.72,69.88-26.81,50.15-48.83c-21.51-24.02-29.07-32.15-29.07-32.15
					c1.52,0.33,3.03,0.6,4.5,0.84c19.25,3.22,34.97,0.86,45.29-4.62C2236.26,1025.55,2239.4,1009.46,2222.94,994.91z"/>
			</g>
			<g class="st2">
				<g>
					<path class="st1" d="M2272.34,389.98c-130.7,11.77-228.99,102.07-282.08,154.68c-46.25-24.06-92.89-36.38-92.89-36.38
						s-47.65-12.24-100.82-13.46c-21.1-71.75-63.8-199.1-172.82-273.22c-51.33-34.89-116.96,46.18-149.26,154.78
						c27.14-125.92,101.67-229.85,158.57-191.16c109.03,74.1,161.51,210.06,182.62,281.81c53.17,1.2,88.85,13.37,88.85,13.37
						s36.11,6.57,82.36,30.62c53.09-52.61,164.08-145.65,294.79-157.43c68.38-6.17,83.74,121.08,47.05,244.53
						C2352.55,487.34,2334.02,384.41,2272.34,389.98z"/>
				</g>
			</g>
			<g>
				<path class="st24" d="M1401.52,838.11c0.81,0.28,1.67,0.56,2.51,0.81c0,0-0.03,0.02-0.1,0.04c-0.02-0.01-0.02-0.01-0.02-0.01
					c-0.18,0.07-0.53,0.16-1.06,0.36C1402.38,838.92,1401.95,838.5,1401.52,838.11z"/>
			</g>
			<g>
				<path class="st1" d="M2149.34,1118.84c-45.38,10.69-109.41,46.42-121.83,50.93c-12.43,4.54-120.48,54.4-301.4,7.43l-0.02-0.01
					c-75.23-19.52-131.38-47.57-171.94-74.41c-57.01-37.67-83.24-72.97-88.33-78.83c-8.71-10-47.61-72.44-82.17-103.89
					c-34.58-31.48-48.31-57.49-20.5-67.16c28.39-9.84,39.43-13.5,40.76-13.95c0,0,0,0,0.02,0.01c0.08-0.05,0.1-0.04,0.1-0.04
					c-1.52-0.49-3.04-0.98-4.49-1.51c6.48-0.47,13.59-0.66,21.36-0.49c62.86,1.31,117.66,103.47,233.07,89.46
					c88.59-10.75,103.72-209.58,137.68-253.51c0.35-0.45,0.68-0.87,1.03-1.33c35.73-45.24,108.08-26.46,117.65,30.54
					c0.11,0.57,0.2,1.11,0.3,1.67c8.64,54.98-73.57,236.4-1.19,288.93c94.33,68.45,191.34,5.7,246.99,35.16
					c6.89,3.64,13.03,7.29,18.5,10.86c-1.47-0.24-2.98-0.51-4.5-0.84c0,0,7.55,8.13,29.07,32.15
					C2219.22,1092.02,2194.7,1108.11,2149.34,1118.84z"/>
			</g>
			<g class="st2">
				<path class="st3" d="M1910.11,729.35c-2.41,20.08-8.49,45.86-14.58,73.6C1899.25,778.16,1904.91,752.79,1910.11,729.35z"/>
			</g>
			<g class="st2">
				<path class="st3" d="M2149.35,1118.84c-45.37,10.68-109.42,46.42-121.84,50.92c-12.43,4.55-120.48,54.41-301.39,7.44h-0.04
					c-75.2-19.52-131.35-47.56-171.9-74.41c-57.03-37.69-83.27-72.97-88.33-78.84c-8.7-9.99-47.61-72.45-82.17-103.89
					c-34.6-31.48-48.33-57.47-20.53-67.18c7.61-2.64,13.99-4.81,19.27-6.64c3.89,4.12,8.28,8.38,13.1,12.76
					c34.56,31.44,73.47,93.85,82.17,103.89c5.11,5.83,31.3,41.14,88.33,78.8c20.28,13.4,44.44,27.14,72.96,39.95
					c28.52,12.81,61.34,24.68,98.98,34.46c180.91,46.96,288.98-2.89,301.39-7.4c12.43-4.51,76.47-40.24,121.84-50.96
					c7.94-1.87,15.25-3.92,21.76-6.13c4.23,4.68,9.68,10.72,16.56,18.38C2219.24,1092.03,2194.69,1108.11,2149.35,1118.84z"/>
			</g>
			<g>
				<path class="st3" d="M1986.84,524.33c-2.04,0-4.11-0.47-6.05-1.49c-43.72-22.77-78.33-29.31-78.68-29.37l-1.88-0.48
					c-0.33-0.11-34.63-11.53-84.87-12.65c-7.29-0.16-13.07-6.24-12.91-13.58c0.16-7.34,6.08-13.27,13.49-13
					c50.47,1.13,85.62,11.74,91.82,13.74c6.3,1.25,41.28,8.88,85.15,31.74c6.47,3.37,9,11.39,5.66,17.91
					C1996.24,521.71,1991.62,524.33,1986.84,524.33z"/>
			</g>
			<g>
				<path class="st3" d="M1610.8,1140.69c-14.9-5-29.41-11.35-43.32-18.78c-13.8-7.61-27.29-15.88-40.04-25.16
					c-25.63-18.48-49.13-39.47-70.64-63.04c-1.17-1.25-3.24-3.81-4.3-5.25l-3.62-4.91l-6.82-9.52l-13.42-18.69
					c-8.99-12.32-18.17-24.4-27.76-35.91c-4.78-5.77-9.72-11.31-14.72-16.69c-2.56-2.55-5.05-5.29-7.67-7.69l-8.25-7.73
					c-5.93-5.5-11.72-11.28-17.23-17.74c-5.48-6.51-10.89-13.33-15.19-22.65c-2.17-4.44-3.91-10.36-4.14-17.17
					c-0.28-7.12,3.17-15.59,8.2-20.69c1.24-1.23,2.52-2.44,3.84-3.58c1.27-0.86,2.54-1.7,3.85-2.5c2.69-1.81,5-2.48,7.54-3.63
					c1.4-0.6,2.12-0.81,3.07-1.14l2.73-0.96l5.46-1.9l21.86-7.56l2.74-0.94l0.34-0.11c0,0,0.61-0.23-0.46,0.17
					c-1.39,0.57-2.75,1.42-3.93,2.5c-2.38,2.2-3.68,5.09-4.02,7.77c-0.35,2.71,0.09,5.62,1.81,8.45c0.85,1.42,2.05,2.71,3.41,3.72
					c0.68,0.5,1.41,0.93,2.09,1.25c0.35,0.16,0.71,0.32,1.07,0.45l-0.16-0.06l-3.04-1.25l-6.07-2.54l-5.94-3.07
					c-7.84-4.36-15.54-9.51-22.28-16.9c-1.65-1.89-3.24-3.97-4.81-5.98c-1.5-2.18-2.85-4.64-4.19-6.98
					c-1.11-2.73-2.32-5.32-3.05-8.34c-0.63-3.15-1.38-6.15-1.15-9.7c0.09-1.73-0.01-3.41,0.38-5.15c0.38-1.75,0.82-3.5,1.33-5.21
					c0.41-1.76,1.38-3.27,2.16-4.86c0.89-1.51,1.64-3.26,2.79-4.45c2.16-2.55,4.47-5.23,6.97-6.85c1.25-0.92,2.5-1.81,3.78-2.66
					c1.26-0.69,2.51-1.26,3.78-1.88c1.27-0.59,2.55-1.2,3.82-1.73l3.7-1.12l6.04-1.74c2.79-0.63,5.68-1.85,8.58-3.01
					c11.66-5.37,23.17-13.95,33.66-23.74c10.61-9.7,20.41-20.74,29.04-32.29c2.14-2.9,4.18-5.82,6.08-8.76l5.76-9.25l12.54-19.81
					l25.28-39.47c3.95-6.17,12.12-7.95,18.24-3.97c6.01,3.91,7.82,11.91,4.15,18.03l-0.23,0.4l-23.62,39.26l-11.91,19.55
					l-6.29,10.53c-2.24,3.58-4.55,7.04-6.93,10.39c-9.61,13.36-20.17,25.68-32.12,37.02c-11.95,11.29-25.23,21.68-41.5,29.36
					c-4.21,1.78-8.42,3.54-13.14,4.71l-3.22,0.92l-1.82,0.58l-1.84,0.51l-1.41,0.72l-1.42,0.64c-0.29,0.28-0.58,0.51-0.9,0.73
					c-0.85,0.38-0.83,0.89-1.29,1.16c-0.3,0.74-0.72,0.85-0.56,1.86c-0.2,0.82,0.43,2.49,1.1,4.31c0.66,0.95,1.11,1.93,1.79,2.94
					l2.44,3.04c3.66,4.09,8.88,7.71,14.45,10.8l4.3,2.25l4.58,1.9l2.29,0.97l0.17,0.07c0.47,0.19,0.94,0.38,1.4,0.6
					c0.91,0.42,1.83,0.98,2.71,1.62c1.76,1.27,3.27,2.95,4.39,4.77c2.21,3.66,2.83,7.57,2.36,11.25c-0.46,3.65-2.23,7.44-5.31,10.3
					c-1.52,1.43-3.31,2.53-5.14,3.27l-1.48,0.54l-2.73,0.94l-21.79,7.42l-5.45,1.84l-2.73,0.93c-0.87,0.3-1.98,0.65-2.34,0.85
					c-0.93,0.48-2.41,0.82-2.86,1.31c-0.33,0.22-0.68,0.4-1.05,0.57c-0.08,0.19-0.19,0.31-0.36,0.4c-0.21,0.47-0.08-0.44-0.18,0.26
					c0.18,0.87,0.19,2.66,1.48,5.14c2.08,4.78,6.11,10.4,10.55,15.67c4.45,5.33,9.54,10.53,14.86,15.56l8.55,8.18
					c3.01,2.88,5.67,5.9,8.5,8.85c5.4,6,10.62,12.1,15.57,18.3c9.94,12.39,19.21,25.09,28.21,37.87l13.25,19.18l6.5,9.43l3.18,4.46
					c1.21,1.67,1.56,2.13,2.94,3.77c19.42,22.62,41.27,43.8,64.09,63.4c11.5,9.76,23.41,18.97,35.71,27.71
					c12.28,8.79,25.19,16.53,38.38,24.11l0.15,0.08c2.42,1.39,3.26,4.48,1.88,6.92C1615.56,1140.54,1613.03,1141.44,1610.8,1140.69z
					"/>
			</g>
			<g>
				<path class="st3" d="M2190.95,802.58l5.66,88.23c1.5,13.64,4.35,27.53,8.33,40.83c3.93,13.3,9,26.2,15.62,37.29
					c3.41,5.33,7.01,10.59,11.14,14.2l4.58,4.62c1.75,1.61,3.35,3.76,4.88,5.97c0.76,1.13,1.57,2.09,2.23,3.38l1.9,3.96
					c1.34,2.49,1.97,5.83,2.62,8.9c0.48,3.15,0.42,6.7-0.01,9.96c-0.72,3.28-1.47,6.69-3.09,9.44c-0.75,1.42-1.48,2.92-2.36,4.18
					c-0.91,1.19-1.86,2.36-2.83,3.51c-1.9,2.49-4.08,3.93-6.22,5.78c-8.73,6.48-17.89,9.13-26.67,10.66
					c-4.44,0.9-8.73,0.96-13.08,1.26c-4.23-0.16-8.57,0.02-12.67-0.59l-6.23-0.71l-0.39-0.04l-0.19-0.02
					c-0.21-0.03-0.03,0.01,0.46,0.07c1.39,0.16,3,0.07,4.53-0.33c3.12-0.8,5.62-2.76,7.1-4.88c1.5-2.14,2.35-4.63,2.32-7.52
					c0.02-2.85-1.31-6.12-3.1-8.09l7.19,7.96l14.81,16.55c4.14,4.89,14.4,14.83,13.02,30.49c-0.27,1.85-0.62,3.69-1.06,5.49
					c-0.61,1.62-1.3,3.23-2.04,4.8c-0.71,1.69-1.62,2.81-2.51,4.1c-0.9,1.19-1.83,2.64-2.78,3.54c-3.82,4.07-7.82,7.14-11.67,9.43
					c-7.77,4.74-15.37,7.79-22.92,10.45c-7.53,2.51-15.04,4.68-22.5,6.41l-10.19,2.58l-9.98,3.03c-26.73,8.86-53.1,21.2-79.44,33.93
					c-6.76,3.22-12.92,6.37-20.66,9.73l-3.13,1.24l-2.61,0.92l-5.47,1.85c-3.64,1.18-7.3,2.29-10.94,3.36
					c-14.59,4.28-29.36,7.43-44.19,10.02c-29.69,4.91-59.74,7-89.57,5.53c-3.8-0.19-6.73-3.44-6.53-7.26
					c0.16-3.37,2.7-6.07,5.9-6.53l0.12-0.02c14.45-2.08,28.81-3.96,43.05-6.49c14.23-2.54,28.38-5.32,42.35-8.7
					c14-3.23,27.79-7.17,41.35-11.43c3.38-1.11,6.73-2.24,10.05-3.42l4.93-1.83l2.56-0.99l1.97-0.82
					c5.73-2.54,12.67-6.12,19.16-9.33c26.49-13.15,53.4-26.24,82.43-36.25c3.66-1.22,7.37-2.36,11.1-3.51l11.15-2.97
					c6.84-1.67,13.45-3.68,19.85-5.88c6.3-2.27,12.35-4.92,17.12-7.94c2.48-1.46,4.25-3.09,5.49-4.37c0.91-1.27,1.38-1.95,1.07-1.68
					c0.17,0.04-0.11-0.02-0.06-0.02c0,0,0.14-0.03-0.05-0.25c-0.1-0.16-0.14-0.34-0.14-0.54c-0.19-0.3-0.45-0.65-0.62-0.99
					c-0.78-1.4-2.3-3.12-5.07-6.16l-14.82-16.32l-7.63-8.48c-2.41-2.66-4.08-6.85-4.07-10.62c-0.05-3.81,1.08-7.23,3.12-10.12
					c2.02-2.88,5.29-5.4,9.31-6.43c1.98-0.52,4.05-0.63,5.9-0.42l1.25,0.14l4.73,0.53c3.18,0.51,6.23,0.28,9.33,0.47
					c2.98-0.26,6.07-0.23,8.85-0.85c5.64-0.88,10.92-2.78,14.04-5.19c0.57-0.64,1.64-1.12,1.87-1.72c0.2-0.28,0.44-0.52,0.69-0.76
					c0.17-0.25,0.15-0.47,0.3-0.67c0.54-0.81,0.38-1.21,0.4-2.08c-0.3-0.49,0-0.94-0.56-1.67c-0.17-0.34-0.33-0.69-0.46-1.06
					s-0.59-0.79-0.86-1.2c-0.57-0.82-1.1-1.71-2.11-2.56l-1.3-1.33l-0.68-0.73l-1.21-1.19c-6.9-6.26-11.68-13.38-16.18-20.46
					c-8.45-14.35-14.28-29.22-18.49-44.32c-4.28-15.11-7.2-30.37-8.72-46.17c-0.32-3.99-0.61-7.99-0.66-12.15l-0.49-11.16
					l-1.04-21.92l-1.87-43.87l-0.02-0.46c-0.32-7.33,5.34-13.53,12.62-13.85C2184.39,789.86,2190.48,795.4,2190.95,802.58z"/>
			</g>
			<g>
				<path class="st25" d="M2246.71,616.1c-35.04,65.1-87.96,91.26-87.96,91.26l-4.12,0.13c-3.7-17.6-15.5-38.43-30.13-58.95
					c-11.64-16.24-25.06-32.28-37.6-46.27c-25.62-28.57-21.55-72.96,8.46-96.78c30.05-23.81,62-41.99,91.17-55.63
					c22.12-10.33,42.68-18.07,59.5-23.68c23.14-7.69,46.62,10.64,45.12,35.11C2288.84,499.28,2279.12,555.91,2246.71,616.1z"/>
			</g>
			<g class="st2">
				<path class="st3" d="M2143.91,618.2c-6.04,11.26-12.65,21.33-19.42,30.34c-11.64-16.24-25.06-32.28-37.6-46.27
					c-25.62-28.57-21.55-72.96,8.46-96.78c30.05-23.81,62-41.99,91.17-55.63c1.46,4.17,2.13,8.76,1.84,13.57
					C2186.03,501.37,2176.33,558,2143.91,618.2z"/>
			</g>
			<g>
				<path class="st3" d="M2145.85,709.34c-5.16-14.77-14.46-28.98-24.37-42.54c-5.15-6.71-10.29-13.48-15.81-20
					c-5.54-6.51-11.21-12.94-16.93-19.36l-8.76-9.48l-9.16-9.65c-7.66-8.49-13.32-19.02-16.08-30.28
					c-2.65-11.25-2.88-23.2,0.1-34.46c3-11.22,8.63-21.84,16.54-30.31l3.05-3.08l1.52-1.49l1.3-1.12l5.21-4.5l10.45-8.95l10.94-8.32
					l5.47-4.15l5.68-3.86l11.37-7.66l11.74-7.04c3.88-2.41,7.87-4.6,11.93-6.69c4.05-2.09,7.98-4.37,12.12-6.28
					c16.37-7.96,33.22-14.75,50.49-20.19c17.33-5.35,34.75-9.67,53.12-11.3c2.75-0.24,5.16,1.8,5.4,4.56
					c0.19,2.24-1.1,4.26-3.06,5.08l-0.3,0.12c-31.93,13.25-62.8,29.21-91.69,47.29c-14.4,9.18-28.59,18.57-41.99,28.97
					c-6.87,4.98-13.26,10.56-19.91,15.79l-9.58,8.33l-4.79,4.15l-1.19,1.04l-0.83,0.84l-1.6,1.61c-8.2,8.91-11.57,21.89-9.11,33.9
					c1.25,6,4.1,11.55,7.99,16.37c0.35,0.52,1.18,1.49,1.91,2.33l2.19,2.58l4.36,5.19l8.59,10.52
					c11.31,14.17,21.8,29.15,31.09,45.13c4.55,8.05,8.88,16.35,12.39,25.16c3.55,8.78,6.54,18.01,7.73,28
					c0.58,4.97-2.93,9.47-7.86,10.06c-4.26,0.51-8.18-2.07-9.55-5.98L2145.85,709.34z"/>
			</g>
			<g>
				<path class="st25" d="M1537.6,432.03c-0.57,74.05,33.18,122.71,33.18,122.71l3.55,2.13c11.69-13.61,32.02-26.09,54.68-36.94
					c17.99-8.55,37.44-16.06,55.13-22.2c36.14-12.54,53.9-53.37,39.05-88.84c-14.88-35.47-34.12-66.94-53.1-93.09
					c-14.41-19.82-28.68-36.59-40.72-49.69c-16.56-17.99-45.91-13.39-56.36,8.78C1556.81,309.26,1538.13,363.56,1537.6,432.03z"/>
			</g>
			<g class="st2">
				<path class="st3" d="M1626.58,483.91c-0.11,12.8,0.84,24.83,2.43,36c17.99-8.55,37.44-16.06,55.13-22.2
					c36.14-12.54,53.9-53.37,39.05-88.84c-14.88-35.47-34.12-66.94-53.1-93.09c-3.28,2.94-6.07,6.63-8.13,10.99
					C1645.79,361.14,1627.1,415.44,1626.58,483.91z"/>
			</g>
			<g>
				<path class="st3" d="M1567.58,550.96c5.83-8.16,12.88-14.79,20.21-20.75c7.31-6,15.08-11.16,22.93-15.99
					c15.8-9.47,32.18-17.48,48.87-24.38l12.57-5.04l6.31-2.43l3.16-1.18c1.03-0.39,2.24-0.82,2.79-1.11
					c5.72-2.32,10.88-5.79,14.86-10.44c7.92-9.31,11.2-22.31,8.3-34.1l-0.63-2.2l-0.32-1.14l-0.55-1.49l-2.21-5.97l-4.38-11.96
					c-3.32-7.81-6.23-15.81-9.85-23.51c-6.75-15.64-14.66-30.76-22.86-45.8c-16.61-29.9-35.97-58.9-57.55-86.04l-0.19-0.25
					c-1.72-2.16-1.38-5.32,0.78-7.05c1.75-1.41,4.14-1.44,5.89-0.25c15.3,10.35,28.47,22.63,41.08,35.75
					c12.5,13.16,23.99,27.32,34.5,42.25c2.7,3.69,5.04,7.6,7.59,11.4s4.98,7.67,7.23,11.66l6.89,11.89l6.28,12.23l3.12,6.14
					l2.8,6.29l5.58,12.6l4.85,12.92l2.4,6.48l0.6,1.61l0.61,2.05l1.19,4.18c2.86,11.27,2.69,23.31-0.07,34.59
					c-2.8,11.31-8.74,21.66-16.46,30.22c-7.81,8.51-17.83,14.97-28.61,18.67l-12.65,3.99l-12.22,4.03
					c-8.09,2.83-16.13,5.71-24.12,8.7c-7.96,3.02-15.71,6.44-23.44,9.81c-15.18,7.04-30.15,14.95-41.76,25.37l-0.27,0.24
					c-3.71,3.33-9.38,3-12.69-0.73C1565.31,559.04,1565.17,554.32,1567.58,550.96z"/>
			</g>
			<g>
				<path class="st22" d="M1826.85,1004.25c-14.49,56.59-49.94,96.3-79.18,88.71c-29.24-7.59-41.21-59.61-26.72-116.2"/>
			</g>
			<g>
				<path class="st26" d="M1823.16,1016.94c-5.93,18.25-14.06,34.29-23.29,46.93c-15.91,21.82-35.1,33.54-52.2,29.1
					c-17.1-4.44-28.3-24.08-31.71-50.97c-2.02-15.53-1.41-33.51,2.14-52.33L1823.16,1016.94z"/>
			</g>
			<g>
				<path class="st3" d="M1752.21,1053.78l9.97-60.06c0.96-5.81,6.43-9.74,12.2-8.77c5.78,0.98,9.67,6.48,8.71,12.29
					c-0.1,0.6-0.27,1.23-0.46,1.79l-20.1,57.43c-0.98,2.81-4.03,4.28-6.82,3.29C1753.22,1058.87,1751.78,1056.32,1752.21,1053.78z"
					/>
			</g>
			<g>
				<path class="st3" d="M1757.62,1104.86c-4.23,0-8.44-0.53-12.59-1.6c-34.84-9.05-53.29-54.97-41.17-102.39
					c1.45-5.69,7.21-9.13,12.86-7.64c5.65,1.47,9.05,7.27,7.59,12.95c-9.08,35.45,2.83,70.48,25.98,76.49
					c10.72,2.79,22.67-0.85,33.63-10.26c12.02-10.29,21.19-25.94,25.83-44.06c1.45-5.69,7.21-9.11,12.86-7.64s9.05,7.27,7.59,12.95
					c-5.72,22.32-17.29,41.83-32.59,54.94C1785.14,1099.3,1771.3,1104.86,1757.62,1104.86z"/>
			</g>
			<g class="st2">
				<path class="st3" d="M1875.45,1010.42c-10.74,29.48-40.12,60.93-75.05,47.98c-30.47-11.29-34.42-37.06-34.42-37.06l-0.62-0.16
					c0,0-15.76,20.15-47.92,15.69c-33.94-4.71-47.53-46.62-42.78-77.64"/>
			</g>
			<g>
				<path class="st1" d="M1867.23,1003.24c-10.74,29.48-33.63,39.44-60.18,29.19c-30.3-11.71-31.97-38.65-31.52-48.39l-0.62-0.16
					c-4.29,8.76-18.67,31.52-50.82,27.02c-28.16-3.95-43.4-23.81-38.66-54.84"/>
			</g>
			<g class="st2">
				<path class="st3" d="M1867.23,1003.24c-10.75,29.47-33.62,39.45-60.18,29.18c-30.3-11.7-31.96-38.63-31.53-48.39l-0.62-0.16
					c-4.29,8.77-18.66,31.52-50.82,27.01c-28.15-3.93-43.4-23.8-38.64-54.83l8.08,2.1c5.19,15.36,18.2,25.09,36.98,27.69
					c16.27,2.29,27.97-2.41,36.12-8.72l19.44,5.05c4.1,9.49,12.1,19.3,27.41,25.21c17.71,6.87,33.77,4.69,45.69-6.23
					L1867.23,1003.24z"/>
			</g>
			<g>
				<path class="st3" d="M1826.49,1046.97c-7.45,0-15.26-1.54-23.23-4.62c-20.1-7.76-29.79-21.26-34.38-33.66
					c-9.96,8.62-24.95,15.71-46.26,12.73c-16.66-2.33-29.96-9.63-38.43-21.1c-8.8-11.9-11.99-27.77-9.21-45.9
					c0.89-5.8,6.25-9.8,12.05-8.89c5.76,0.89,9.72,6.32,8.83,12.13c-1.89,12.37-0.06,22.72,5.28,29.96
					c5.09,6.9,13.3,11.18,24.4,12.73c24.03,3.35,35.32-11.83,39.9-21.2l3.81-7.77l17.22,4.52l-0.4,8.61
					c-0.48,10.43,2.1,29.23,24.75,37.98c10.45,4.04,19.7,4.29,27.47,0.73c8.15-3.73,14.72-11.91,19.01-23.66
					c2.01-5.51,8.08-8.34,13.55-6.32c5.47,2.03,8.28,8.13,6.28,13.64c-6.28,17.21-16.68,29.56-30.1,35.69
					C1840.66,1045.51,1833.75,1046.97,1826.49,1046.97z"/>
			</g>
			<g>
				<path class="st3" d="M2177.79,816.82c-4.92,0-9.65-2.79-11.91-7.56c-3.14-6.62-0.37-14.56,6.2-17.74
					c126.44-60.99,184.77-272.84,155.87-378.8c-6.06-22.24-18.81-48.24-45.11-45.9c-125.98,11.35-233.72,101.15-286.72,153.66
					c-5.2,5.14-13.55,5.08-18.66-0.15c-5.11-5.23-5.04-13.65,0.15-18.79c55.52-55.02,168.71-149.11,302.89-161.19
					c20.09-1.8,56.27,4.28,72.92,65.33c31.08,113.98-27.88,341.31-169.92,409.82C2181.64,816.4,2179.69,816.82,2177.79,816.82z"/>
			</g>
			<g>
				<path class="st3" d="M1509.29,644.77c-4.06,0-8.09-1.89-10.67-5.45c-92.93-128.08-36.2-356.85,45.92-442.68
					c32.27-33.73,67.22-41.9,95.87-22.41c111.84,76.04,165.72,213.74,187.9,289.05c2.07,7.04-1.92,14.43-8.9,16.52
					c-6.99,2.09-14.33-1.93-16.41-8.97c-21.16-71.9-72.36-203.17-177.35-274.56c-22.05-15-45.94,1.95-62.1,18.82
					c-67.93,70.99-131.62,287.25-43.62,408.56c4.3,5.92,3.01,14.24-2.87,18.58C1514.71,643.93,1511.99,644.77,1509.29,644.77z"/>
			</g>
			<g>
				<path class="st3" d="M1779.05,983.89c-1.23,0-2.46-0.15-3.71-0.47c-7.91-2.06-12.66-10.18-10.63-18.14l7.92-30.96
					c2.04-7.97,10.1-12.76,18.01-10.7s12.66,10.17,10.63,18.14l-7.92,30.96C1791.64,979.43,1785.64,983.89,1779.05,983.89z"/>
			</g>
			<g>
				<path class="st3" d="M1844.86,944.2c-4.68,18.28-36.89,36.06-68.89,27.75s-51.65-39.55-46.97-57.83s31.01-13.08,63-4.78
					C1824,917.63,1849.53,925.92,1844.86,944.2z"/>
			</g>
			<g class="st2">
				<g>
					<path class="st1" d="M1816.88,927.56c-1.13,4.42-15.05,7.12-30.35,3.15c-15.3-3.97-26.19-13.12-25.05-17.53
						c1.13-4.41,13.63-1.57,28.93,2.41C1805.7,919.55,1818.01,923.14,1816.88,927.56z"/>
				</g>
			</g>
			<g>
				
					<ellipse transform="matrix(0.3271 -0.945 0.945 0.3271 350.7112 2091.6482)" class="st3" cx="1644.06" cy="799.56" rx="84.88" ry="61.12"/>
			</g>
			<g>
				<g>
					
						<ellipse transform="matrix(0.3285 -0.9445 0.9445 0.3285 368.6087 2102.7256)" class="st1" cx="1663.11" cy="792.13" rx="28.5" ry="18.47"/>
				</g>
				<g>
					<path class="st3" d="M1681.45,798.65c-2.14,5.96-5.32,11.65-9.93,16.19c-2.3,2.26-4.97,4.27-8.13,5.49
						c-3.12,1.23-6.8,1.6-10.25,0.53c-3.43-1.11-6.33-3.6-8.26-6.52c-1.99-2.92-3.01-6.28-3.6-9.6c-1.09-6.7-0.06-13.46,2.15-19.64
						c2.34-6.12,5.71-12.03,10.79-16.41c2.52-2.18,5.41-4.04,8.71-5.08c3.26-1.05,6.98-1.16,10.28,0.09
						c3.3,1.31,5.89,3.87,7.56,6.75c1.69,2.91,2.52,6.13,3,9.31C1684.64,786.21,1683.56,792.67,1681.45,798.65z M1679.8,798.06
						c1.89-5.79,2.74-12,1.79-17.94c-0.84-5.88-4.24-11.63-9.44-13.29c-5.24-1.59-10.9,1.14-14.9,5.18c-4.06,4.08-7.11,9.25-9,14.81
						c-1.77,5.57-2.67,11.49-1.94,17.17c0.66,5.59,3.23,11.17,8.13,13.24c4.94,2.02,11.08-0.25,15.51-4.14
						C1674.46,809.16,1677.69,803.77,1679.8,798.06z"/>
				</g>
			</g>
			<g>
				<path class="st3" d="M2055.81,866.88c-10.45,2-21.11,4.52-31.08,7.57c-10.01,3.23-19.57,6.99-28.57,11.52
					c-4.56,2.14-8.78,4.81-13.09,7.26c-4.02,2.89-8.31,5.37-12.02,8.62c-7.93,5.86-14.51,13.23-21.03,20.71l-16.41-23.17
					c3.28-0.96,5.43-1.38,8.02-1.82c2.49-0.45,4.95-0.74,7.41-1.04c4.91-0.53,9.83-0.64,14.71-0.56c9.78,0.22,19.5,1.74,28.81,4.54
					c9.25,2.95,18.27,6.62,26.21,12.02c8.18,4.92,15.13,11.54,21.3,18.41c1.89,2.11,1.73,5.35-0.37,7.25
					c-1.53,1.39-3.67,1.68-5.44,0.9l-0.56-0.25c-3.96-1.74-7.58-3.81-11.41-5.4c-3.88-1.5-7.57-3.21-11.47-4.33
					c-7.66-2.53-15.41-4.3-23.21-5.05c-7.75-0.99-15.55-1.04-23.24-0.39c-3.84,0.31-7.65,0.88-11.38,1.52
					c-1.86,0.37-3.72,0.72-5.49,1.19c-1.68,0.4-3.78,1.04-4.69,1.33l-0.27,0.08c-7.75,2.51-16.05-1.78-18.55-9.58
					c-1.54-4.82-0.45-9.94,2.41-13.67c7.64-9.87,16-19.49,26.24-26.85c4.82-4.08,10.41-6.99,15.71-10.27
					c5.63-2.68,11.15-5.57,17.05-7.43c11.62-4.12,23.67-6.61,35.7-7.1c12.07-0.58,23.86,0.34,35.7,3.89
					c2.72,0.81,4.27,3.69,3.46,6.43c-0.56,1.91-2.13,3.25-3.95,3.61L2055.81,866.88z"/>
			</g>
		</g>
		<g class="st2">
			<path class="st3" d="M2085.11,1297.77c-10.22,7.36-22.94,14.21-38.74,20.12c-125.55,47.05-324.69,2.94-324.69,2.94
				s-135.1-24.89-237.5-84.78c-22.39-13.1-43.22-27.86-60.75-44.42c-2.45-2.34-4.82-4.64-7.01-6.93
				c-45.29-47.05-39.41-87.84-29.4-110.99c5.57-12.93,12.42-20.34,12.42-20.34s1.4,1.27,4.27,3.62c6.84,5.57,21.92,17.31,44.61,32.2
				c11.45,7.58,24.88,15.91,40.18,24.68c0,0,0,0,0.04,0c15.93,9.19,33.88,18.76,53.82,28.42c53.48,25.87,121.08,51.98,201.08,69.89
				c151.66,27.56,273.92,11.23,335.21-1.57C2079.2,1240.3,2081.69,1269.44,2085.11,1297.77z"/>
		</g>
		<g>
			<path class="st16" d="M2046.37,1275.33c-125.53,47.06-324.66,2.97-324.66,2.97s-200.61-36.92-298.28-129.22
				c-80.92-76.48-23.99-138.23-23.99-138.23s1.43,1.27,4.28,3.58c23.72,19.28,144.73,111.55,339.71,155.2
				c196.52,35.7,343.57-2.24,372.84-10.77c3.52-1.02,5.32-1.63,5.32-1.63S2150.36,1236.33,2046.37,1275.33z"/>
		</g>
		<g class="st2">
			<path class="st3" d="M2124.19,1195.03c-4.01,2.17-8.07,4.26-12.17,6.34c-29.27,8.55-176.33,46.49-372.81,10.81
				c-195.01-43.64-316.03-135.92-339.73-155.19c-5.2-6.13-10.26-12.34-15.21-18.67c5.75-17.27,15.16-27.48,15.16-27.48
				s1.4,1.27,4.27,3.62c23.7,19.27,144.73,111.54,339.73,155.19c196.48,35.69,343.54-2.25,372.81-10.81
				c3.55-1.02,5.32-1.61,5.32-1.61S2127.53,1173.55,2124.19,1195.03z"/>
		</g>
		<g>
			<path class="st3" d="M1899.55,1314.16c-91.55,0-173.65-17.52-181.18-19.17c-11.96-2.22-207.34-39.78-306.51-133.5
				c-92.11-87.05-25.49-161.47-24.81-162.21c6.25-6.77,16.7-7.28,23.58-1.17c0.13,0.12,1.37,1.19,3.67,3.05
				c21.95,17.84,140.89,108.82,332.46,151.77c193.12,35.01,337.76-2.55,364.8-10.44c2.87-0.82,4.41-1.34,4.6-1.41
				c8.68-2.95,18.13,1.6,21.29,10.27c0.35,0.95,33.18,95.52-85.19,139.92l0,0C2006.19,1308.55,1951.35,1314.16,1899.55,1314.16z
				 M1403.26,1035.63c-9.15,18.92-16.01,55.93,31.73,101.04c92.85,87.74,287.8,124.53,289.76,124.89c0.19,0.03,0.4,0.07,0.58,0.11
				c1.95,0.43,195.81,42.45,315.14-2.29l0,0c61.3-22.99,69.22-59.74,68.06-80.81c-47.25,12.1-187.83,40.53-368.1,7.79
				c-0.22-0.04-0.45-0.09-0.66-0.13C1560.93,1146.2,1442.23,1065.24,1403.26,1035.63z M2046.37,1275.33h0.05H2046.37z"/>
		</g>
		<g>
			<path class="st3" d="M1598.22,1915.75c-2.65,0-5.34-0.81-7.67-2.49c-5.92-4.27-7.3-12.56-3.05-18.54
				c1.76-2.48,43.82-61.2,109.15-108.15c88.57-63.63,176.82-73.92,255.19-29.78c6.36,3.59,8.64,11.68,5.07,18.1
				c-3.56,6.41-11.6,8.69-17.96,5.11c-167.53-94.37-328.39,127.94-329.99,130.2C1606.38,1913.81,1602.32,1915.75,1598.22,1915.75z"
				/>
		</g>
		<g class="st2">
			<path class="st1" d="M1831.79,117.78c-72.23-18.75-167.87,34.67-189.55,73.85c-22.46,40.59-21.36,69.06,20.76,80.9
				c58.81,16.54,97.62-9.18,122.1-45.73C1802.4,200.95,1920.94,140.92,1831.79,117.78z"/>
		</g>
	</g>
</g>
<path class="st3" d="M1307.54,2073.31"/>
</svg>
