<?xml version="1.0" encoding="utf-8"?>
<!-- Generator: Adobe Illustrator 26.1.0, SVG Export Plug-In . SVG Version: 6.00 Build 0)  -->
<svg version="1.1" id="Шар_1" xmlns="http://www.w3.org/2000/svg" xmlns:xlink="http://www.w3.org/1999/xlink" x="0px" y="0px"
	 viewBox="0 0 402.52 469.58" style="enable-background:new 0 0 402.52 469.58;" xml:space="preserve">
<style type="text/css">
	.st0{filter:url(#Adobe_OpacityMaskFilter);}
	.st1{clip-path:url(#SVGID_00000149354535561056166020000004324227500695258009_);}
	
		.st2{clip-path:url(#SVGID_00000172403293377814543110000018140801679038828702_);fill:url(#SVGID_00000145054631749126710200000016323028178323987359_);}
	
		.st3{clip-path:url(#SVGID_00000149354535561056166020000004324227500695258009_);mask:url(#SVGID_00000019667126371904903560000013865205652143415178_);fill:url(#SVGID_00000170958424865640805940000005967382367357770135_);}
	.st4{filter:url(#Adobe_OpacityMaskFilter_00000160878390713352271180000014904079849340771005_);}
	.st5{clip-path:url(#SVGID_00000111905856432123020190000007827047994633367996_);}
	
		.st6{clip-path:url(#SVGID_00000106826756616890489510000013466777495463934874_);fill:url(#SVGID_00000066507778355822559710000011906749537759635133_);}
	
		.st7{clip-path:url(#SVGID_00000111905856432123020190000007827047994633367996_);mask:url(#SVGID_00000044179018531640668630000012973182762403173812_);fill:url(#SVGID_00000170237921559581453250000013452006607432447671_);}
</style>
<g>
	<g>
		<defs>
			<path id="SVGID_1_" d="M238.73,49.89C139.41,61.2,68.07,150.88,79.38,250.19c11.31,99.32,100.99,170.66,200.3,159.35
				c19.47-2.22,37.87-7.45,54.78-15.17c-91.67,1.04-171.07-67.46-181.67-160.52C143.7,154.01,188.03,80.4,257.36,48.72
				C251.2,48.8,244.98,49.18,238.73,49.89"/>
		</defs>
		<clipPath id="SVGID_00000062150738879511202120000010475841377976158395_">
			<use xlink:href="#SVGID_1_"  style="overflow:visible;"/>
		</clipPath>
		<defs>
			<filter id="Adobe_OpacityMaskFilter" filterUnits="userSpaceOnUse" x="0" y="0" width="402.52" height="469.58">
				<feColorMatrix  type="matrix" values="1 0 0 0 0  0 1 0 0 0  0 0 1 0 0  0 0 0 1 0"/>
			</filter>
		</defs>
		
			<mask maskUnits="userSpaceOnUse" x="0" y="0" width="402.52" height="469.58" id="SVGID_00000019667126371904903560000013865205652143415178_">
			<g class="st0">
				<g>
					<defs>
						<path id="SVGID_00000001639705431430495120000003272919139509267600_" d="M238.73,49.89
							C139.41,61.2,68.07,150.88,79.38,250.19c11.31,99.32,100.99,170.66,200.3,159.35c19.47-2.22,37.87-7.45,54.78-15.17
							c-91.67,1.04-171.07-67.46-181.67-160.52C143.7,154.01,188.03,80.4,257.36,48.72C251.2,48.8,244.98,49.18,238.73,49.89"/>
					</defs>
					
						<clipPath id="SVGID_00000013910823362769786680000012152872101329739904_" style="clip-path:url(#SVGID_00000062150738879511202120000010475841377976158395_);">
						<use xlink:href="#SVGID_00000001639705431430495120000003272919139509267600_"  style="overflow:visible;"/>
					</clipPath>
					
						<linearGradient id="SVGID_00000074418760496015359220000006206048369387963799_" gradientUnits="userSpaceOnUse" x1="-1067.7502" y1="-526.2393" x2="-1066.7502" y2="-526.2393" gradientTransform="matrix(-72.1229 -380.6487 380.6487 -72.1229 123536.0625 -443989.3125)">
						<stop  offset="0" style="stop-color:#B3B3B3"/>
						<stop  offset="1" style="stop-color:#333333"/>
					</linearGradient>
					
						<polygon style="clip-path:url(#SVGID_00000013910823362769786680000012152872101329739904_);fill:url(#SVGID_00000074418760496015359220000006206048369387963799_);" points="
						77.3,469.58 0,61.62 325.23,0 402.52,407.96 					"/>
				</g>
			</g>
		</mask>
		
			<linearGradient id="SVGID_00000011014721087439921780000014462651062250673034_" gradientUnits="userSpaceOnUse" x1="-1067.7502" y1="-526.2393" x2="-1066.7502" y2="-526.2393" gradientTransform="matrix(-72.1229 -380.6487 380.6487 -72.1229 123536.0625 -443989.2812)">
			<stop  offset="0" style="stop-color:#FFFFFF"/>
			<stop  offset="1" style="stop-color:#FFFFFF"/>
		</linearGradient>
		
			<polygon style="clip-path:url(#SVGID_00000062150738879511202120000010475841377976158395_);mask:url(#SVGID_00000019667126371904903560000013865205652143415178_);fill:url(#SVGID_00000011014721087439921780000014462651062250673034_);" points="
			77.3,469.58 0,61.62 325.23,0 402.52,407.96 		"/>
	</g>
</g>
<g>
	<g>
		<defs>
			<path id="SVGID_00000155825956953297607850000009203336016621986969_" d="M314.68,88.81c-2.44,22.23-7.34,69.38-13.53,75.58
				c-8,8-42.8,21.58-50.11,25.87c-0.67,0.39-0.63,1.37,0.06,1.71c8.75,4.31,50.33,23.54,52.05,30.42
				c1.61,6.42,11.4,60.16,14.69,76.27c0.21,1.04,1.7,1.03,1.91-0.01c3.21-16.3,12.1-67.48,15.41-74.26
				c3.32-6.82,47.57-22.7,58.5-28.85c1.48-0.84,1.34-3.01-0.24-3.64c-10.67-4.27-47.39-17.04-56.26-31.51
				c-9.47-15.43-18.93-52.8-20.53-71.55c-0.05-0.59-0.51-0.89-0.97-0.89C315.2,87.94,314.74,88.23,314.68,88.81"/>
		</defs>
		<clipPath id="SVGID_00000018216268306241549270000014481645230089412504_">
			<use xlink:href="#SVGID_00000155825956953297607850000009203336016621986969_"  style="overflow:visible;"/>
		</clipPath>
		<defs>
			
				<filter id="Adobe_OpacityMaskFilter_00000079469801911845555310000006576948456656339094_" filterUnits="userSpaceOnUse" x="184.52" y="42.92" width="276.46" height="301.8">
				<feColorMatrix  type="matrix" values="1 0 0 0 0  0 1 0 0 0  0 0 1 0 0  0 0 0 1 0"/>
			</filter>
		</defs>
		
			<mask maskUnits="userSpaceOnUse" x="184.52" y="42.92" width="276.46" height="301.8" id="SVGID_00000044179018531640668630000012973182762403173812_">
			<g style="filter:url(#Adobe_OpacityMaskFilter_00000079469801911845555310000006576948456656339094_);">
				<g>
					<defs>
						<path id="SVGID_00000060021587164697625900000008614283952898254497_" d="M314.68,88.81c-2.44,22.23-7.34,69.38-13.53,75.58
							c-8,8-42.8,21.58-50.11,25.87c-0.67,0.39-0.63,1.37,0.06,1.71c8.75,4.31,50.33,23.54,52.05,30.42
							c1.61,6.42,11.4,60.16,14.69,76.27c0.21,1.04,1.7,1.03,1.91-0.01c3.21-16.3,12.1-67.48,15.41-74.26
							c3.32-6.82,47.57-22.7,58.5-28.85c1.48-0.84,1.34-3.01-0.24-3.64c-10.67-4.27-47.39-17.04-56.26-31.51
							c-9.47-15.43-18.93-52.8-20.53-71.55c-0.05-0.59-0.51-0.89-0.97-0.89C315.2,87.94,314.74,88.23,314.68,88.81"/>
					</defs>
					
						<clipPath id="SVGID_00000137125460271072944120000017878973946297865882_" style="clip-path:url(#SVGID_00000018216268306241549270000014481645230089412504_);">
						<use xlink:href="#SVGID_00000060021587164697625900000008614283952898254497_"  style="overflow:visible;"/>
					</clipPath>
					
						<linearGradient id="SVGID_00000052084030248902182410000016036057632739451797_" gradientUnits="userSpaceOnUse" x1="-1067.8873" y1="-536.7886" x2="-1066.8873" y2="-536.7886" gradientTransform="matrix(51.2759 146.9909 -146.9909 51.2759 -23839.3223 184642.2344)">
						<stop  offset="0" style="stop-color:#B3B3B3"/>
						<stop  offset="1" style="stop-color:#333333"/>
					</linearGradient>
					
						<polygon style="clip-path:url(#SVGID_00000137125460271072944120000017878973946297865882_);fill:url(#SVGID_00000052084030248902182410000016036057632739451797_);" points="
						379.43,42.92 460.98,276.73 266.08,344.72 184.52,110.91 					"/>
				</g>
			</g>
		</mask>
		
			<linearGradient id="SVGID_00000097490768841258401870000014669514610816714152_" gradientUnits="userSpaceOnUse" x1="-1067.8873" y1="-536.7886" x2="-1066.8873" y2="-536.7886" gradientTransform="matrix(51.2759 146.9909 -146.9909 51.2759 -23839.3223 184642.2344)">
			<stop  offset="0" style="stop-color:#FFFFFF"/>
			<stop  offset="1" style="stop-color:#FFFFFF"/>
		</linearGradient>
		
			<polygon style="clip-path:url(#SVGID_00000018216268306241549270000014481645230089412504_);mask:url(#SVGID_00000044179018531640668630000012973182762403173812_);fill:url(#SVGID_00000097490768841258401870000014669514610816714152_);" points="
			379.43,42.92 460.98,276.73 266.08,344.72 184.52,110.91 		"/>
	</g>
</g>
</svg>
