<?xml version="1.0" encoding="utf-8"?>
<!-- Generator: Adobe Illustrator 26.1.0, SVG Export Plug-In . SVG Version: 6.00 Build 0)  -->
<svg version="1.1" id="Шар_1" xmlns="http://www.w3.org/2000/svg" xmlns:xlink="http://www.w3.org/1999/xlink" x="0px" y="0px"
	 viewBox="0 0 1920 1080" style="enable-background:new 0 0 1920 1080;" xml:space="preserve">
<style type="text/css">
	.st0{fill:#FD0B00;}
	.st1{fill:#DC0A02;}
	.st2{fill:#FFFFFF;}
	.st3{fill:none;stroke:#FFFFFF;stroke-width:5;stroke-miterlimit:10;}
</style>
<path class="st0" d="M935.85,505.99c0,28.11-1.59,50.89-3.54,50.89c-1.96,0-3.54-22.79-3.54-50.89c0-28.11,1.59-50.89,3.54-50.89
	C934.27,455.1,935.85,477.88,935.85,505.99"/>
<path class="st1" d="M957.76,319.04l25.34,44.71l25.34,44.71l-10.12,2.22c-26.74,5.87-54.39,5.87-81.13,0l-10.12-2.22l25.34-44.71
	L957.76,319.04z"/>
<path class="st1" d="M996.34,432.09V575.4l-3.32,0.64l-1.13,0.21c-6.02,1.13-12.07,1.99-18.16,2.59c-0.69,0.07-1.38,0.13-2.07,0.2
	c-9.42,0.84-18.87,1.06-28.32,0.65c-0.18-0.01-0.37-0.01-0.55-0.02c-7.9-0.34-15.78-1.14-23.59-2.36V432.09
	c7.77,1.45,15.62,2.47,23.5,3.03c1.99,0.15,3.98,0.26,5.97,0.34v0.01c0.21,0.01,0.4,0.02,0.61,0.03c3.08,0.12,6.14,0.18,9.22,0.17
	c0.79,0,1.6-0.01,2.39-0.02h0.03c0.51-0.01,1.02-0.02,1.53-0.03c3.9-0.08,7.82-0.28,11.71-0.59c2.23-0.18,4.46-0.39,6.68-0.63
	c2.45-0.27,4.9-0.58,7.35-0.95c1.08-0.16,2.15-0.33,3.23-0.5c0.34-0.05,0.69-0.1,1.03-0.16
	C993.75,432.56,995.05,432.33,996.34,432.09"/>
<path class="st0" d="M957.76,318.93l40.01,92.06c0,0-13.75,6.56-29.5,3.28L957.76,318.93z"/>
<polygon class="st0" points="996.33,432.09 977.77,434.83 977.77,578.4 996.33,575.41 "/>
<path class="st2" d="M919.19,432.09c3.2,0.52,6.41,0.86,9.63,1.16c3.21,0.31,6.43,0.55,9.65,0.71c6.44,0.35,12.88,0.44,19.3,0.25
	c6.42-0.16,12.83-0.6,19.18-1.36c6.36-0.71,12.67-1.76,18.9-3.13l2.85-0.63l0.06,3c0.22,11.94,0.31,23.89,0.45,35.83l0.11,35.83
	c-0.06,11.94-0.05,23.89-0.18,35.83c-0.15,11.94-0.24,23.89-0.51,35.83l-0.04,1.85l-1.69,0.38c-3.3,0.74-6.48,1.27-9.73,1.76
	c-3.24,0.49-6.48,0.86-9.73,1.16c-6.5,0.6-13.02,0.93-19.54,0.91c-6.52-0.04-13.03-0.33-19.49-1.02c-6.47-0.67-12.88-1.73-19.2-3.14
	c3.22,0.39,6.43,0.76,9.65,0.98c3.22,0.27,6.44,0.44,9.66,0.55c6.44,0.19,12.88,0.15,19.3-0.24c6.42-0.36,12.82-0.95,19.17-1.86
	c6.32-0.93,12.72-2,18.78-3.56l-1.73,2.22c-0.27-11.94-0.36-23.89-0.51-35.83c-0.13-11.94-0.11-23.89-0.18-35.83l0.11-35.83
	c0.14-11.94,0.23-23.89,0.45-35.83l2.9,2.38c-6.46,1.16-12.96,1.99-19.48,2.47c-6.53,0.43-13.06,0.54-19.57,0.35
	c-6.51-0.22-13.01-0.74-19.45-1.58C931.87,434.85,925.46,433.73,919.19,432.09"/>
<path class="st2" d="M919.2,583.5c6.53,0.51,12.95,0.97,19.37,1.26c6.41,0.33,12.81,0.51,19.2,0.5l2.4,0.03l2.4-0.05l4.8-0.06
	c3.19-0.15,6.4-0.16,9.6-0.39c6.43-0.22,12.8-0.93,19.37-1.29c-6.09,2.4-12.46,4.17-18.95,5.19c-3.23,0.62-6.51,0.88-9.78,1.22
	c-3.28,0.19-6.56,0.41-9.85,0.35c-6.57,0.01-13.14-0.53-19.61-1.6C931.69,587.56,925.26,586.04,919.2,583.5"/>
<path class="st2" d="M957.76,319.04c4.7,7.18,9.21,14.47,13.73,21.75c4.47,7.31,8.93,14.63,13.3,22
	c4.43,7.34,8.69,14.76,13.03,22.15l12.79,22.29l1.43,2.49l-2.64,1.04c-1.16,0.46-2.16,0.78-3.23,1.12
	c-1.06,0.35-2.12,0.61-3.17,0.92c-2.12,0.55-4.24,1.09-6.38,1.5c-4.27,0.9-8.57,1.54-12.88,2.02c-8.63,0.88-17.3,1.12-25.92,0.74
	l-6.46-0.38c-2.15-0.13-4.29-0.4-6.43-0.62c-4.29-0.39-8.54-1.12-12.78-1.78c-2.13-0.3-4.22-0.79-6.33-1.21l-6.3-1.32
	c-4.17-1.01-8.3-2.17-12.43-3.29l12.68,1.93l6.35,0.77c2.12,0.26,4.22,0.56,6.35,0.7c4.24,0.35,8.47,0.83,12.72,0.94
	c2.12,0.07,4.24,0.26,6.36,0.29l6.36,0.08c8.47-0.09,16.93-0.42,25.28-1.54c4.17-0.57,8.34-1.18,12.42-2.1
	c2.06-0.41,4.07-0.95,6.09-1.49c0.99-0.3,2.01-0.56,2.97-0.89c0.97-0.31,1.99-0.66,2.82-0.99l-1.21,3.54l-12.55-22.42
	c-4.1-7.52-8.29-14.99-12.31-22.56c-4.08-7.53-8.07-15.12-12.04-22.71C965.44,334.37,961.51,326.76,957.76,319.04"/>
<path class="st2" d="M941.91,397.38c-2.26,6.92-6.73,7.6-11.58,6.02c-4.85-1.58-8.23-4.83-5.97-11.75
	c2.26-6.92,33.4-72.61,33.4-72.61S944.17,390.46,941.91,397.38"/>
<line class="st3" x1="983.1" y1="585.65" x2="983.1" y2="760.64"/>
<path class="st2" d="M935.64,460.39c-5.57,2.46-11.75,1.69-16.44-1.5v-26.8c7.77,1.45,15.62,2.47,23.5,3.03
	c0.61,0.88,1.15,1.84,1.61,2.85C948.09,446.56,944.22,456.59,935.64,460.39"/>
<path class="st2" d="M919.2,462.19c4.1,2.2,8.88,2.76,13.3,1.22c-0.38,0.2-0.76,0.4-1.15,0.57c-3.94,1.74-8.24,1.73-12.15,0.31
	V462.19z"/>
<path class="st2" d="M996.34,486.26c-1.44,1.62-3.24,2.97-5.35,3.9c-7.81,3.46-16.95-0.07-20.41-7.89
	c-3.45-7.82,0.08-16.95,7.9-20.41c6.32-2.8,13.53-1.02,17.87,3.91V486.26z"/>
<path class="st2" d="M965.14,483.68c-4.15-9.38-0.91-20.01,7.22-24.43c-0.42,0.15-0.84,0.31-1.26,0.49
	c-9.01,3.99-12.79,15.2-8.44,25.04c4.35,9.84,15.19,14.58,24.2,10.6c0.42-0.18,0.82-0.39,1.21-0.6
	C979.35,497.81,969.3,493.06,965.14,483.68"/>
<path class="st2" d="M961.66,535.1c-2.51,7.38-10.52,11.33-17.9,8.82c-7.38-2.51-11.33-10.52-8.82-17.9
	c2.51-7.38,10.52-11.33,17.9-8.82C960.22,519.71,964.17,527.73,961.66,535.1"/>
<path class="st2" d="M955.41,510.44c8.85,3.01,14.25,10.92,12.56,18.04c0.15-0.32,0.28-0.65,0.4-0.99
	c2.51-7.38-2.98-15.92-12.27-19.07c-9.28-3.15-18.84,0.27-21.35,7.65c-0.12,0.34-0.21,0.68-0.29,1.03
	C937.46,510.41,946.56,507.43,955.41,510.44"/>
<path class="st2" d="M996.34,553.05v22.36l-3.32,0.64l-1.13,0.2c-6.02,1.13-12.07,1.99-18.16,2.59c-0.69,0.07-1.38,0.13-2.07,0.2
	c-0.22-0.48-0.42-0.97-0.61-1.46c-3.68-9.99,1.42-21.06,11.41-24.74C987.13,551.11,992.06,551.31,996.34,553.05"/>
</svg>
