<?xml version="1.0" encoding="utf-8"?>
<!-- Generator: Adobe Illustrator 26.1.0, SVG Export Plug-In . SVG Version: 6.00 Build 0)  -->
<svg version="1.1" id="Шар_1" xmlns="http://www.w3.org/2000/svg" xmlns:xlink="http://www.w3.org/1999/xlink" x="0px" y="0px"
	 viewBox="0 0 1920 1080" style="enable-background:new 0 0 1920 1080;" xml:space="preserve">
<style type="text/css">
	.st0{fill:#DC0A02;}
	.st1{fill:#FD0B00;}
	.st2{fill:#FFFFFF;}
	.st3{fill:none;stroke:#FFFFFF;stroke-width:5;stroke-miterlimit:10;}
</style>
<path class="st0" d="M957.76,179.72l25.34,44.71l25.34,44.71l-10.12,2.22c-26.74,5.87-54.39,5.87-81.13,0l-10.12-2.22l25.34-44.71
	L957.76,179.72z"/>
<path class="st0" d="M996.34,292.78v264.85l-3.32,1.18c-0.38,0.13-0.75,0.26-1.13,0.38c-6.02,2.08-12.07,3.67-18.16,4.78
	c-0.69,0.13-1.38,0.24-2.07,0.37c-9.42,1.55-18.87,1.96-28.32,1.2c-0.18-0.01-0.37-0.01-0.55-0.03c-7.89-0.63-15.78-2.1-23.59-4.36
	V292.78c2.56,0.89,5.13,1.68,7.71,2.38h0.01c5.24,1.44,10.5,2.52,15.78,3.21c1.99,0.26,3.98,0.47,5.97,0.62v0.02
	c0.19,0.02,0.37,0.03,0.56,0.04v0.01h0.05c3.08,0.22,6.14,0.33,9.22,0.32c0.79,0,1.6-0.02,2.39-0.03h0.03
	c0.51-0.02,1.02-0.03,1.53-0.06c3.9-0.15,7.82-0.52,11.71-1.09c2.23-0.33,4.46-0.71,6.68-1.17c2.45-0.5,4.9-1.07,7.35-1.75
	c1.08-0.3,2.15-0.6,3.23-0.93c0.34-0.09,0.69-0.19,1.03-0.3C993.75,293.65,995.05,293.23,996.34,292.78"/>
<path class="st1" d="M957.76,179.61l40.01,92.06c0,0-13.75,6.56-29.5,3.28L957.76,179.61z"/>
<path class="st1" d="M932.31,431.15c0,51.94-1.59,94.05-3.54,94.05c-1.96,0-3.54-42.11-3.54-94.05c0-51.94,1.58-94.05,3.54-94.05
	C930.73,337.1,932.31,379.21,932.31,431.15"/>
<polygon class="st1" points="996.33,292.78 977.77,297.84 977.77,563.16 996.33,557.63 "/>
<path class="st2" d="M949.22,299.06c0.2,0.39,0.38,0.79,0.54,1.21c2.84,7.25-0.75,15.44-8.02,18.28
	c-7.25,2.84-15.44-0.75-18.28-8.01c-2.15-5.51-0.61-11.55,3.44-15.38L949.22,299.06z"/>
<path class="st2" d="M944.14,325.38c-8.71,3.4-17.93,0.83-21.23-5.71c0.1,0.34,0.21,0.68,0.34,1.02
	c2.84,7.26,12.54,10.25,21.67,6.69c9.13-3.57,14.23-12.34,11.4-19.6c-0.13-0.34-0.28-0.66-0.44-0.97
	C957.89,313.84,952.85,321.98,944.14,325.38"/>
<path class="st2" d="M996.34,364.22c-0.99,0.15-2.02,0.19-3.07,0.11c-7.77-0.57-13.61-7.33-13.04-15.11
	c0.57-7.77,7.33-13.61,15.11-13.04c0.33,0.03,0.67,0.06,1,0.11V364.22z"/>
<path class="st2" d="M992.74,431.35c1.26,7.69-3.96,14.95-11.65,16.2c-7.69,1.26-14.94-3.96-16.2-11.65
	c-1.26-7.69,3.96-14.95,11.65-16.2C984.23,418.45,991.48,423.66,992.74,431.35"/>
<path class="st2" d="M975.62,412.53c9.23-1.51,17.71,2.93,19.57,10.01c-0.02-0.35-0.06-0.71-0.12-1.06
	c-1.26-7.69-10.12-12.64-19.8-11.06c-9.67,1.58-16.5,9.1-15.24,16.79c0.06,0.35,0.14,0.7,0.23,1.04
	C959.77,420.95,966.4,414.04,975.62,412.53"/>
<path class="st2" d="M929.72,479.26c-2.61,3.45-6.51,5.37-10.52,5.57v-28.18c2.73,0.15,5.43,1.07,7.78,2.84
	C933.19,464.2,934.41,473.04,929.72,479.26"/>
<path class="st2" d="M927.37,487.88c-0.19,0.3-0.39,0.6-0.6,0.89c-1.85,2.43-4.53,3.95-7.57,4.54v-1.51
	C922.4,491.45,925.3,490.14,927.37,487.88"/>
<path class="st2" d="M996.34,541.76c-4.18,2.44-9.5,2.66-14.02,0.11c-6.79-3.82-9.21-12.42-5.39-19.21
	c3.82-6.79,12.42-9.2,19.22-5.38c0.07,0.03,0.13,0.08,0.2,0.12V541.76z"/>
<path class="st2" d="M970.75,518.89c4.58-8.15,13.34-12.01,20.04-9.03c-0.29-0.2-0.59-0.4-0.9-0.57c-6.79-3.82-16.19,0.01-21,8.56
	c-4.8,8.55-3.19,18.57,3.6,22.39c0.31,0.18,0.63,0.33,0.96,0.47C967.43,536.54,966.17,527.04,970.75,518.89"/>
<path class="st2" d="M919.19,292.77c6.2,2.16,12.64,3.47,19.1,4.44c6.46,0.94,12.99,1.31,19.49,1.22c6.5-0.11,12.97-0.79,19.33-2.02
	c6.35-1.22,12.58-3.03,18.58-5.38l2.45-0.96l0.05,2.69c0.21,11.04,0.33,22.07,0.46,33.11l0.2,16.55l0.13,16.55l0.23,33.11
	l0.08,33.11l0.04,16.55l-0.04,16.55l-0.08,33.11c-0.17,22.07-0.26,44.14-0.58,66.21l-0.02,1.53l-1.3,0.55
	c-3.23,1.38-6.35,2.4-9.59,3.36c-3.21,0.95-6.47,1.72-9.74,2.35c-6.55,1.28-13.19,2.03-19.85,2.19c-6.65,0.13-13.3-0.28-19.84-1.35
	c-6.54-1.06-12.94-2.8-19.1-5.11c3.18,0.84,6.37,1.62,9.6,2.17c3.21,0.61,6.46,1.02,9.7,1.34c3.25,0.27,6.5,0.44,9.76,0.47
	c3.25,0,6.5-0.1,9.73-0.38c6.47-0.53,12.89-1.52,19.17-3.08c3.14-0.78,6.25-1.66,9.31-2.67c3.03-1.01,6.13-2.16,8.89-3.45
	l-1.32,2.08c-0.32-22.07-0.41-44.14-0.58-66.21l-0.08-33.11l-0.04-16.55l0.04-16.55l0.08-33.11l0.23-33.11l0.13-16.55l0.2-16.55
	c0.14-11.04,0.25-22.07,0.46-33.11l2.5,1.73c-6.3,2.22-12.79,3.86-19.36,4.9c-6.58,0.99-13.23,1.39-19.85,1.21
	c-6.62-0.17-13.21-0.93-19.68-2.22c-3.24-0.64-6.44-1.41-9.6-2.35C925.34,295.11,922.21,294.07,919.19,292.77"/>
<path class="st2" d="M919.2,572.59c3.22,0.88,6.42,1.66,9.64,2.3c3.2,0.69,6.43,1.2,9.64,1.67c6.43,0.93,12.87,1.41,19.32,1.45
	c6.44,0.03,12.88-0.43,19.29-1.35c6.42-0.93,12.78-2.4,19.26-4.07c-5.65,3.59-11.94,6.16-18.47,7.92c-6.54,1.69-13.33,2.54-20.1,2.5
	c-6.77-0.04-13.54-0.91-20.06-2.61C931.2,578.66,924.81,576.27,919.2,572.59"/>
<path class="st2" d="M957.76,179.72c4.7,7.18,9.21,14.47,13.73,21.75c4.47,7.31,8.93,14.63,13.3,22
	c4.42,7.34,8.69,14.76,13.03,22.15l12.79,22.29l1.43,2.49l-2.64,1.04c-1.16,0.46-2.16,0.78-3.23,1.12
	c-1.06,0.35-2.12,0.61-3.17,0.92c-2.12,0.55-4.24,1.09-6.38,1.5c-4.27,0.9-8.57,1.54-12.88,2.02c-8.63,0.88-17.3,1.12-25.92,0.74
	l-6.46-0.38c-2.15-0.13-4.29-0.4-6.43-0.62c-4.29-0.39-8.54-1.12-12.78-1.78c-2.13-0.3-4.22-0.79-6.33-1.21l-6.3-1.32
	c-4.17-1.01-8.3-2.17-12.43-3.29l12.68,1.93l6.35,0.77c2.12,0.26,4.22,0.56,6.35,0.7c4.24,0.35,8.47,0.83,12.72,0.94
	c2.12,0.07,4.24,0.26,6.36,0.29l6.36,0.08c8.47-0.09,16.93-0.42,25.28-1.54c4.17-0.57,8.34-1.18,12.42-2.1
	c2.06-0.41,4.07-0.95,6.09-1.49c0.99-0.3,2.01-0.56,2.97-0.89c0.97-0.31,1.99-0.66,2.82-0.99l-1.21,3.54l-12.55-22.42
	c-4.1-7.52-8.29-14.99-12.31-22.56c-4.08-7.53-8.07-15.12-12.04-22.71C965.44,195.06,961.51,187.45,957.76,179.72"/>
<path class="st2" d="M941.91,258.06c-2.26,6.92-6.73,7.6-11.58,6.02c-4.85-1.58-8.23-4.83-5.97-11.75
	c2.26-6.92,33.4-72.61,33.4-72.61S944.17,251.15,941.91,258.06"/>
<line class="st3" x1="928.77" y1="576.56" x2="928.77" y2="899.95"/>
</svg>
