<?xml version="1.0" encoding="utf-8"?>
<!-- Generator: Adobe Illustrator 26.1.0, SVG Export Plug-In . SVG Version: 6.00 Build 0)  -->
<svg version="1.1" id="Шар_1" xmlns="http://www.w3.org/2000/svg" xmlns:xlink="http://www.w3.org/1999/xlink" x="0px" y="0px"
	 viewBox="0 0 1920 1080" style="enable-background:new 0 0 1920 1080;" xml:space="preserve">
<style type="text/css">
	.st0{fill:#202A60;}
	.st1{fill:#23478D;}
	.st2{fill:#4F5484;}
	.st3{fill:#FFFFFF;}
	.st4{fill:none;stroke:#FFFFFF;stroke-width:7;stroke-miterlimit:10;}
</style>
<path class="st0" d="M937.88,331.27l25.34,44.71l25.34,44.71l-10.12,2.22c-26.74,5.87-54.39,5.87-81.13,0l-10.12-2.22l25.34-44.71
	L937.88,331.27z"/>
<path class="st0" d="M976.45,443.71v187.78l-3.32,0.83c-0.38,0.1-0.75,0.19-1.13,0.27c-6.02,1.48-12.07,2.61-18.16,3.39
	c-10.1,1.31-20.25,1.69-30.39,1.12c-0.18-0.01-0.37-0.02-0.55-0.03c-7.9-0.45-15.78-1.49-23.59-3.09V443.71
	c9.72,2.39,19.58,3.87,29.47,4.42v0.01c0.21,0.01,0.4,0.02,0.61,0.03c1.07,0.06,2.14,0.1,3.2,0.14c0.84,0.03,1.67,0.05,2.51,0.07
	c1.17,0.02,2.33,0.03,3.5,0.02c0.79,0,1.6-0.01,2.39-0.02h0.03c0.51-0.01,1.02-0.02,1.53-0.04c3.9-0.11,7.82-0.37,11.71-0.77
	c2.23-0.23,4.46-0.51,6.68-0.83c2.45-0.35,4.9-0.76,7.35-1.24c0.54-0.11,1.08-0.21,1.61-0.31c0.54-0.11,1.08-0.23,1.61-0.34
	c0.34-0.07,0.69-0.14,1.03-0.22C973.86,444.33,975.16,444.03,976.45,443.71"/>
<path class="st1" d="M937.88,331.27l40.01,92.06c0,0-13.75,6.56-29.5,3.28L937.88,331.27z"/>
<path class="st1" d="M958.1,447.11l1.39,189.99l16.95-6.48V442.45C972.59,443.98,971.53,444.68,958.1,447.11"/>
<path class="st2" d="M918.55,535.26c0,36.83-1.59,66.68-3.54,66.68c-1.96,0-3.54-29.85-3.54-66.68c0-36.83,1.59-66.68,3.54-66.68
	C916.97,468.58,918.55,498.43,918.55,535.26"/>
<path class="st3" d="M976.45,452.88v37.65l-0.73,3.23c-27.97,27.42-56.98,39.03-76.41,43.94v-31.37
	C917.29,501.89,949.12,488.88,976.45,452.88"/>
<path class="st3" d="M932.59,448.31c-11.4,9.44-22.74,16.47-33.28,21.72v-26.31c9.72,2.39,19.58,3.87,29.47,4.42v0.01
	c0.21,0.01,0.4,0.02,0.61,0.03C930.46,448.23,931.52,448.27,932.59,448.31"/>
<path class="st3" d="M976.45,534.86v37.31c-29.39,23.03-58.15,31.87-77.14,35.24v-30.76C917.27,572.35,946.96,561.6,976.45,534.86"
	/>
<path class="st3" d="M937.88,331.27c4.7,7.18,9.21,14.47,13.73,21.75c4.47,7.31,8.93,14.63,13.3,22
	c4.42,7.34,8.69,14.76,13.03,22.15l12.79,22.29l1.43,2.49l-2.64,1.04c-1.16,0.46-2.16,0.78-3.23,1.12
	c-1.06,0.35-2.12,0.61-3.18,0.92c-2.12,0.55-4.24,1.09-6.38,1.5c-4.27,0.9-8.57,1.54-12.88,2.02c-8.63,0.88-17.3,1.12-25.92,0.74
	l-6.46-0.38c-2.15-0.13-4.29-0.4-6.43-0.62c-4.29-0.39-8.53-1.13-12.78-1.78c-2.13-0.3-4.22-0.79-6.33-1.21l-6.3-1.32
	c-4.17-1.01-8.3-2.17-12.43-3.29l12.68,1.93l6.35,0.77c2.12,0.25,4.22,0.56,6.35,0.7c4.24,0.35,8.47,0.83,12.72,0.94
	c2.12,0.07,4.24,0.26,6.36,0.29l6.36,0.08c8.47-0.09,16.93-0.42,25.28-1.54c4.17-0.57,8.34-1.18,12.42-2.1
	c2.06-0.41,4.07-0.95,6.09-1.49c0.99-0.3,2.01-0.56,2.97-0.89c0.97-0.31,1.99-0.66,2.82-0.99l-1.21,3.54l-12.55-22.42
	c-4.1-7.52-8.28-14.99-12.31-22.56c-4.08-7.53-8.07-15.12-12.04-22.71C945.56,346.61,941.62,339,937.88,331.27"/>
<path class="st3" d="M922.03,409.61c-2.26,6.92-6.73,7.6-11.58,6.02c-4.85-1.58-8.23-4.83-5.97-11.75
	c2.26-6.92,33.4-72.61,33.4-72.61S924.28,402.7,922.03,409.61"/>
<path class="st3" d="M899.31,443.71c0.52,15.86,0.94,31.71,1.26,47.57c0.18,7.93,0.33,15.86,0.46,23.78l0.39,23.78
	c0.17,15.86,0.44,31.71,0.52,47.57c0.1,15.86,0.28,31.71,0.28,47.57l-2.46-2.87c6.32,0.92,12.79,1.6,19.21,2.1
	c6.44,0.5,12.88,0.81,19.3,0.82c6.42,0.05,12.84-0.19,19.11-0.97c3.13-0.41,6.23-0.94,9.23-1.72c2.99-0.77,5.87-1.81,8.38-3.24
	l-1.45,2.51c0-15.69,0.19-31.38,0.29-47.07c0.08-15.69,0.35-31.38,0.52-47.06l0.39-23.53c0.12-7.85,0.27-15.69,0.45-23.53
	c0.32-15.69,0.73-31.38,1.25-47.07c0.52,15.69,0.93,31.38,1.26,47.07c0.18,7.84,0.33,15.69,0.45,23.53l0.38,23.53
	c0.17,15.69,0.44,31.38,0.52,47.06c0.1,15.69,0.28,31.38,0.29,47.07v1.68l-1.45,0.83c-3.16,1.81-6.47,2.99-9.78,3.87
	c-3.31,0.88-6.64,1.47-9.97,1.92c-6.65,0.87-13.29,1.13-19.9,1.12c-6.61-0.04-13.19-0.4-19.75-0.93
	c-6.57-0.55-13.06-1.26-19.64-2.25l-2.46-0.37l0-2.5c0-15.86,0.18-31.71,0.28-47.57c0.08-15.86,0.35-31.71,0.52-47.57l0.39-23.78
	c0.13-7.93,0.27-15.86,0.46-23.78C898.38,475.42,898.79,459.57,899.31,443.71"/>
<path class="st3" d="M899.31,437.46c6.46,1.02,12.88,1.72,19.3,2.21c6.42,0.47,12.84,0.75,19.26,0.69
	c6.41-0.06,12.84-0.22,19.25-0.81c3.22-0.2,6.41-0.6,9.64-0.94c1.62-0.1,3.21-0.4,4.83-0.59c1.61-0.21,3.23-0.41,4.87-0.56
	c-1.53,0.58-3.07,1.12-4.63,1.64c-1.55,0.52-3.11,1.05-4.7,1.44l-4.78,1.18c-0.79,0.21-1.6,0.37-2.41,0.5l-2.43,0.42
	c-6.47,1.18-13.05,1.68-19.63,1.72c-6.58,0.06-13.16-0.54-19.64-1.61C911.76,441.67,905.33,440.08,899.31,437.46"/>
<path class="st3" d="M898.88,632.68c27.99-8.06,54.67-22.1,78.25-41.18c-0.04,6.51-5.56,10.96-10.46,14.26
	c-19.98,13.42-41.1,27.22-64.25,27.75"/>
<path class="st3" d="M954.25,636.04c5.76-0.24,11.48-1.86,16.68-4.73c1.34-0.74,2.66-1.57,3.73-2.75c1.07-1.18,1.88-2.75,1.98-4.45
	c-5,3.46-10.14,6.72-15.6,9.09c-5.46,2.37-11.28,3.83-17.12,3.62"/>
<path class="st3" d="M937.42,637.07c9.33-2.76,18.36-6.89,26.78-12.26c2.81-1.79,5.55-3.72,8.3-5.65c1.05-0.74,2.13-1.51,2.83-2.67
	c0.7-1.16,0.93-2.82,0.21-3.96c-3.26,5.16-8.41,8.26-13.5,10.84c-10.92,5.53-22.4,9.44-33.84,13.35"/>
<path class="st3" d="M955.96,634.91c3-1.26,5.89-2.9,8.59-4.87c3.69-2.69,7.02-6.01,10.79-8.55c0.6,3.25-0.4,6.75-2.32,9.25
	c-1.91,2.5-4.65,4.06-7.49,4.75c-2.84,0.69-5.79,0.56-8.66,0.09"/>
<polygon class="st3" points="1005.45,639.67 1005.45,666.82 1016.65,666.82 1009.01,678.49 1031.93,694.83 1005.45,689 
	1005.45,702.72 996.79,689.87 979.73,709.43 987.11,683.16 976.67,679.66 988.39,673.24 985.07,661.27 996.02,664.77 "/>
<line class="st4" x1="908.21" y1="635.97" x2="908.21" y2="748.29"/>
<path class="st3" d="M967.86,634.67c0.89,4.49,1.88,8.78,3.14,12.92c1.26,4.13,2.84,8.08,4.91,11.67c1.03,1.8,2.24,3.47,3.56,5.03
	c0.64,0.8,1.39,1.5,2.1,2.25c0.78,0.67,1.52,1.4,2.36,2c0.8,0.68,1.7,1.2,2.56,1.82c0.92,0.51,1.82,1.11,2.8,1.56
	c1.92,1.04,4,1.77,6.14,2.64c-2.27,0.21-4.63,0.18-6.93-0.31c-1.17-0.18-2.29-0.57-3.43-0.92c-1.1-0.45-2.24-0.86-3.28-1.47
	c-2.14-1.12-4.1-2.61-5.8-4.33c-1.71-1.72-3.19-3.66-4.4-5.74c-2.4-4.17-3.82-8.77-4.43-13.37c-0.3-2.31-0.41-4.62-0.3-6.93
	C967,639.18,967.22,636.89,967.86,634.67"/>
<path class="st3" d="M995.43,709.43c0.6,1.5,1,3.03,1.34,4.57c0.33,1.54,0.6,3.08,0.79,4.63c0.19,1.55,0.3,3.12,0.35,4.69
	c0.04,1.57,0.01,3.15-0.21,4.75c-0.6-1.5-1.01-3.03-1.34-4.57c-0.33-1.54-0.6-3.08-0.78-4.63c-0.19-1.55-0.3-3.12-0.34-4.69
	C995.18,712.61,995.2,711.03,995.43,709.43"/>
<path class="st3" d="M987.62,641.26c0.75,1.23,1.31,2.51,1.81,3.81c0.49,1.3,0.92,2.61,1.27,3.95c0.36,1.33,0.63,2.69,0.85,4.06
	c0.21,1.37,0.35,2.76,0.3,4.21c-0.76-1.23-1.32-2.51-1.81-3.81c-0.49-1.3-0.92-2.61-1.27-3.95c-0.35-1.34-0.63-2.69-0.84-4.06
	C987.72,644.09,987.58,642.7,987.62,641.26"/>
</svg>
