<?xml version="1.0" encoding="utf-8"?>
<!-- Generator: Adobe Illustrator 26.1.0, SVG Export Plug-In . SVG Version: 6.00 Build 0)  -->
<svg version="1.1" id="Шар_1" xmlns="http://www.w3.org/2000/svg" xmlns:xlink="http://www.w3.org/1999/xlink" x="0px" y="0px"
	 viewBox="0 0 1920 1080" style="enable-background:new 0 0 1920 1080;" xml:space="preserve">
<style type="text/css">
	.st0{fill:#FFFFFF;}
	.st1{fill:#202A60;}
	.st2{fill:#23478D;}
	.st3{fill:#4F5484;}
	.st4{fill:none;stroke:#FFFFFF;stroke-width:7;stroke-miterlimit:10;}
</style>
<polygon class="st0" points="976.82,714.1 976.82,749.25 993.45,749.25 982.11,764.37 1016.13,785.54 976.82,777.98 976.82,795.74 
	963.97,779.11 938.65,804.43 949.61,770.42 934.11,765.88 951.5,757.57 946.59,742.07 962.84,746.61 "/>
<path class="st0" d="M1031.69,468.62c-3.57,1.7-7.52,1.62-10.86,0.11l11.81-22.83c2.15,1.26,3.96,3.14,5.11,5.56
	C1040.82,457.88,1038.11,465.55,1031.69,468.62"/>
<path class="st0" d="M1026.17,474.63c-0.28,0.16-0.56,0.32-0.86,0.47c-2.51,1.19-5.32,1.3-8.04,0.5l0.63-1.23
	C1020.66,475.44,1023.55,475.59,1026.17,474.63"/>
<path class="st1" d="M1042.94,261.45l15.55,70.45l15.55,70.45l-14.49-1.2c-38.3-3.16-75.4-14.57-108.86-33.48l-12.66-7.15
	l52.45-49.53L1042.94,261.45z"/>
<path class="st1" d="M1048.28,428.24l-77.5,251.96l-4.8-0.26c-0.54-0.02-1.09-0.06-1.63-0.1c-8.68-0.5-17.27-1.49-25.76-2.95
	c-14.09-2.41-27.87-6.08-41.24-11.04c-0.24-0.09-0.48-0.18-0.72-0.27c-10.41-3.86-20.56-8.51-30.38-13.88l78.53-255.31
	c12.06,7.22,24.68,13.27,37.72,18.09l0,0.01c0.27,0.1,0.53,0.19,0.8,0.29c1.41,0.52,2.83,1.01,4.24,1.51
	c1.11,0.39,2.23,0.76,3.34,1.13c1.56,0.51,3.12,1,4.69,1.47c1.07,0.33,2.15,0.65,3.22,0.96l0.04,0.01c0.69,0.2,1.37,0.39,2.07,0.58
	c5.28,1.47,10.64,2.73,16.04,3.8c3.09,0.61,6.2,1.16,9.31,1.64c3.44,0.54,6.89,1,10.37,1.36c0.77,0.08,1.53,0.17,2.3,0.25
	c0.77,0.08,1.54,0.14,2.31,0.21c0.49,0.05,0.99,0.1,1.48,0.14C1044.55,428,1046.42,428.13,1048.28,428.24"/>
<path class="st2" d="M1042.94,261.45l15.69,140.04c0,0-21.16,3.13-40.94-7.77L1042.94,261.45z"/>
<path class="st2" d="M1022.26,425.23l-76.54,255.5l25.42-1.7l77.66-252.49C1043,427,1041.28,427.51,1022.26,425.23"/>
<path class="st3" d="M932.81,527.18c-15.2,49.41-29.65,88.82-32.27,88.01c-2.62-0.81,7.57-41.52,22.77-90.93
	s29.65-88.82,32.27-88.01C958.21,437.05,948.01,477.77,932.81,527.18"/>
<path class="st0" d="M1044.5,440.54l-15.54,50.52l-2.31,4.04c-48.84,25.25-92.56,28.85-120.66,27.42l12.95-42.1
	C944.89,481.88,992.97,477.57,1044.5,440.54"/>
<path class="st0" d="M987.54,416.3c-19.19,7.96-37.31,12.72-53.62,15.41l10.86-35.3c12.06,7.22,24.68,13.27,37.72,18.09l0,0.01
	c0.27,0.1,0.53,0.19,0.8,0.29C984.7,415.32,986.12,415.81,987.54,416.3"/>
<path class="st0" d="M1010.66,550.54l-15.4,50.06c-48.94,18.77-91.18,18.77-118.05,15.45l12.69-41.27
	C915.79,576.43,960.05,574.25,1010.66,550.54"/>
<path class="st0" d="M1042.94,261.45c3.13,11.62,6.04,23.29,8.97,34.96c2.87,11.68,5.73,23.36,8.48,35.07
	c2.82,11.69,5.46,23.42,8.18,35.13l7.91,35.19l0.63,2.81l-2.83,0.22c-1.67,0.13-3.16,0.16-4.71,0.17c-1.55,0.04-3.07-0.05-4.6-0.07
	c-3.05-0.14-6.1-0.28-9.12-0.61c-1.51-0.16-3.03-0.26-4.54-0.47l-4.51-0.61l-2.26-0.31l-2.24-0.39l-4.48-0.8
	c-11.91-2.32-23.6-5.54-35.01-9.51l-8.51-3.11c-2.83-1.04-5.59-2.27-8.38-3.42c-5.6-2.24-11.01-4.92-16.45-7.49
	c-2.74-1.25-5.37-2.73-8.03-4.14l-7.95-4.27c-5.21-3.01-10.32-6.18-15.45-9.3l16.09,8.07l8.16,3.76c2.72,1.25,5.41,2.57,8.2,3.65
	c5.53,2.29,10.99,4.71,16.64,6.68l4.2,1.56c1.4,0.52,2.78,1.08,4.21,1.52l8.5,2.79c11.4,3.48,22.92,6.56,34.63,8.56
	c5.85,0.98,11.72,1.89,17.62,2.36c2.95,0.3,5.9,0.42,8.84,0.53c1.47,0.01,2.95,0.09,4.4,0.04c1.45-0.01,2.96-0.07,4.28-0.17
	l-2.2,3.03l-7.64-35.25c-2.46-11.77-5-23.52-7.37-35.31c-2.43-11.78-4.76-23.58-7.07-35.38
	C1047.26,285.12,1044.99,273.31,1042.94,261.45"/>
<path class="st0" d="M989.33,360.03c-5.88,8.35-12.17,7.42-18.02,3.3c-5.85-4.12-9.05-9.88-3.17-18.23
	c5.88-8.35,74.79-83.65,74.79-83.65S995.22,351.68,989.33,360.03"/>
<path class="st0" d="M947.36,388.02c8.07,4.32,16.34,8.07,24.72,11.51c4.2,1.7,8.42,3.33,12.68,4.85c2.15,0.71,4.27,1.49,6.41,2.23
	c2.15,0.7,4.32,1.34,6.48,2.01c2.14,0.73,4.33,1.31,6.51,1.91c2.19,0.58,4.34,1.26,6.55,1.76l6.59,1.61
	c1.1,0.29,2.21,0.51,3.32,0.72l3.32,0.7c4.42,1,8.9,1.7,13.38,2.49c2.23,0.47,4.49,0.69,6.75,1.03c2.26,0.32,4.52,0.65,6.78,1.03
	c-2.29,0.06-4.57,0.07-6.87,0.07c-2.29-0.01-4.59,0.01-6.88-0.18l-6.87-0.52l-1.72-0.14l-1.71-0.24l-3.41-0.48
	c-2.27-0.34-4.57-0.57-6.81-1.07l-6.76-1.36c-1.13-0.2-2.25-0.49-3.36-0.79l-3.34-0.88c-2.23-0.58-4.46-1.14-6.65-1.86
	c-8.81-2.66-17.4-6.04-25.67-10.06C962.56,398.34,954.54,393.73,947.36,388.02"/>
<path class="st0" d="M866.21,649.78c40.89,0.73,82.48-7.09,121.99-22.95c-2.74,8.72-11.99,12.41-19.93,14.81
	c-32.34,9.76-66.39,19.56-97.67,10.72"/>
<path class="st0" d="M939.12,677.14c7.83,2.05,16.17,2.24,24.33,0.54c2.1-0.44,4.22-1.01,6.14-2.15c1.92-1.14,3.66-2.91,4.49-5.15
	c-8.14,2.58-16.37,4.83-24.68,5.76c-8.31,0.92-16.72,0.49-24.46-2.21"/>
<path class="st0" d="M916.11,671.58c13.66,0.15,27.48-1.67,40.99-5.4c4.51-1.24,8.99-2.7,13.46-4.16c1.71-0.56,3.48-1.15,4.9-2.41
	c1.42-1.26,2.42-3.4,1.91-5.23c-6.51,5.58-14.7,7.62-22.58,8.97c-16.93,2.91-33.95,3.43-50.92,3.94"/>
<path class="st0" d="M941.88,676.34c4.55-0.46,9.1-1.46,13.53-2.99c6.06-2.09,11.9-5.16,18.01-7.02c-0.53,4.61-3.33,8.89-6.93,11.45
	c-3.6,2.56-7.91,3.53-12.01,3.28c-4.09-0.25-8-1.64-11.66-3.46"/>
<line class="st4" x1="877.37" y1="658.05" x2="846.24" y2="759.27"/>
<path class="st0" d="M957.94,680.92c-0.52,3.14-0.97,6.23-1.28,9.33c-0.36,3.09-0.54,6.17-0.64,9.23
	c-0.17,6.12,0.26,12.19,1.58,17.99c0.66,2.9,1.62,5.71,2.82,8.4c0.56,1.37,1.31,2.64,2,3.95c0.81,1.24,1.55,2.53,2.48,3.69
	c0.84,1.24,1.89,2.31,2.85,3.48c1.07,1.05,2.09,2.2,3.28,3.15c2.24,2.12,4.84,3.81,7.44,5.67c-3.05-0.85-6.09-2.01-8.88-3.68
	c-1.44-0.77-2.71-1.79-4.06-2.73c-0.64-0.51-1.24-1.07-1.87-1.61c-0.64-0.53-1.21-1.13-1.76-1.74c-1.18-1.17-2.17-2.51-3.18-3.83
	c-0.92-1.39-1.83-2.79-2.56-4.28c-1.52-2.96-2.67-6.11-3.42-9.33c-1.47-6.45-1.54-13.09-0.62-19.47c0.46-3.2,1.22-6.33,2.15-9.39
	C955.26,686.71,956.38,683.7,957.94,680.92"/>
<path class="st0" d="M964.08,792.6c0.02,2.24-0.16,4.44-0.4,6.62c-0.23,2.19-0.58,4.36-0.95,6.52c-0.41,2.16-0.84,4.31-1.38,6.45
	c-0.53,2.14-1.13,4.26-1.93,6.35c-0.02-2.24,0.15-4.44,0.4-6.62c0.23-2.19,0.58-4.36,0.95-6.52c0.41-2.16,0.84-4.31,1.38-6.45
	C962.68,796.82,963.28,794.69,964.08,792.6"/>
<path class="st0" d="M1032.67,745.87c-1.07,0.96-2.22,1.74-3.4,2.45c-1.18,0.72-2.39,1.37-3.64,1.95c-1.24,0.59-2.52,1.1-3.83,1.55
	c-1.31,0.45-2.64,0.84-4.06,1.04c1.07-0.96,2.22-1.74,3.4-2.46c1.18-0.71,2.39-1.37,3.64-1.95c1.24-0.58,2.52-1.1,3.83-1.55
	C1029.91,746.46,1031.25,746.08,1032.67,745.87"/>
<path class="st0" d="M981.74,697.92c0.34,1.95,0.48,3.9,0.54,5.84c0.07,1.94,0.07,3.88-0.01,5.82c-0.07,1.94-0.23,3.87-0.45,5.8
	c-0.22,1.93-0.52,3.86-1.01,5.78c-0.34-1.95-0.48-3.9-0.55-5.84c-0.07-1.94-0.07-3.88,0.01-5.82c0.08-1.94,0.23-3.87,0.46-5.8
	C980.96,701.77,981.25,699.84,981.74,697.92"/>
</svg>
