<?xml version="1.0" encoding="utf-8"?>
<!-- Generator: Adobe Illustrator 26.1.0, SVG Export Plug-In . SVG Version: 6.00 Build 0)  -->
<svg version="1.1" id="Шар_1" xmlns="http://www.w3.org/2000/svg" xmlns:xlink="http://www.w3.org/1999/xlink" x="0px" y="0px"
	 viewBox="0 0 146.18 447.11" style="enable-background:new 0 0 146.18 447.11;" xml:space="preserve">
<style type="text/css">
	.st0{fill:#DC0A02;}
	.st1{fill:#FD0B00;}
	.st2{fill:#FFFFFF;}
</style>
<path class="st0" d="M82.72,0l31.73,44.71l31.73,44.71l-12.67,2.22c-33.48,5.87-68.11,5.87-101.6,0l-12.67-2.22l31.73-44.71L82.72,0
	z"/>
<path class="st0" d="M121.29,113.35v187.78l-3.32,0.83c-0.38,0.1-0.75,0.19-1.13,0.27c-6.01,1.48-12.07,2.61-18.16,3.39
	c-10.1,1.31-20.25,1.69-30.39,1.12c-0.18-0.01-0.37-0.02-0.55-0.03c-7.89-0.45-15.78-1.49-23.59-3.09V113.35
	c9.72,2.39,19.58,3.87,29.47,4.42v0.01c0.21,0.01,0.4,0.02,0.61,0.03c3.08,0.17,6.14,0.24,9.22,0.22c0.79,0,1.6-0.01,2.39-0.02h0.03
	c0.51-0.01,1.02-0.02,1.53-0.04c3.9-0.11,7.82-0.37,11.71-0.77c2.23-0.24,4.46-0.51,6.68-0.83c2.45-0.35,4.9-0.76,7.35-1.24
	c1.08-0.21,2.15-0.42,3.23-0.66c0.34-0.07,0.69-0.14,1.03-0.22C118.7,113.97,120,113.66,121.29,113.35"/>
<path class="st1" d="M82.72-0.11l50.1,92.06c0,0-17.22,6.56-36.94,3.28L82.72-0.11z"/>
<path class="st1" d="M57.27,211.46c0,36.83-1.59,66.68-3.54,66.68c-1.96,0-3.54-29.85-3.54-66.68s1.59-66.68,3.54-66.68
	C55.68,144.77,57.27,174.63,57.27,211.46"/>
<polygon class="st1" points="121.29,113.35 102.72,116.94 102.72,305.05 121.29,301.13 "/>
<path class="st2" d="M44.15,113.34c3.16,0.74,6.37,1.27,9.58,1.74c3.21,0.45,6.43,0.84,9.65,1.11c6.45,0.54,12.91,0.78,19.35,0.61
	c6.44-0.18,12.86-0.66,19.22-1.58c6.35-0.92,12.62-2.28,18.78-3.98l2.69-0.75l0.04,2.85l0.37,23.47l0.23,23.47
	c0.09,7.82,0.13,15.65,0.14,23.47l0.07,23.47l-0.14,46.95c-0.17,15.65-0.25,31.3-0.55,46.95l-0.03,1.72l-1.54,0.46
	c-3.29,0.98-6.45,1.69-9.7,2.36c-3.23,0.66-6.48,1.18-9.75,1.6c-6.52,0.84-13.08,1.32-19.64,1.37c-6.56,0.02-13.11-0.31-19.6-1.14
	c-6.49-0.81-12.9-2.12-19.17-3.86c3.21,0.56,6.41,1.08,9.64,1.42c3.22,0.4,6.45,0.65,9.68,0.83c3.23,0.16,6.46,0.24,9.69,0.23
	c3.23-0.03,6.45-0.12,9.67-0.35c6.43-0.42,12.83-1.15,19.16-2.3c3.16-0.57,6.31-1.22,9.42-1.95c3.09-0.74,6.25-1.58,9.16-2.56
	l-1.57,2.18c-0.3-15.65-0.38-31.3-0.55-46.95l-0.14-46.95l0.08-23.47c0.01-7.82,0.05-15.65,0.14-23.47l0.23-23.47l0.36-23.47
	l2.74,2.1c-6.41,1.59-12.92,2.69-19.47,3.34c-6.54,0.64-13.11,0.9-19.66,0.67c-6.55-0.22-13.07-0.77-19.52-1.79
	C56.75,116.67,50.35,115.31,44.15,113.34"/>
<path class="st2" d="M73.62,117.78c-8.83,18.9-21.25,29.19-29.47,34.29v19.76c0,0,33.68-15.69,47.04-54l-0.09-0.11L73.62,117.78z"/>
<path class="st2" d="M121.29,112.08v21.29c-23.57,48.09-55.74,75.79-77.14,89.04v-24.34c20.94-14.7,48.34-41.69,68.99-84.22
	c1.08-0.21,2.15-0.42,3.23-0.66c0.34-0.07,0.69-0.14,1.03-0.22C118.7,112.7,120,112.4,121.29,112.08"/>
<path class="st2" d="M121.29,167.88v31.23c-26.38,45.05-58.38,67.86-77.14,78.18v-22.45C63.79,242.79,96.23,216.99,121.29,167.88"/>
<path class="st2" d="M123.1,235.61l-1.36,26.75c-19.37,21.59-39.92,35.52-55.85,43.92c-0.18-0.02-0.37-0.04-0.54-0.06
	c-7.86-0.85-13.47-0.6-21.19-2.59v-7.57C62.26,289.05,93.47,272.35,123.1,235.61"/>
<path class="st2" d="M44.15,311.73c6.52,0.97,12.93,1.74,19.35,2.25l4.81,0.36c1.61,0.07,3.21,0.18,4.81,0.27
	c3.21,0.08,6.41,0.24,9.61,0.2l2.4,0.03l2.4-0.07c1.6-0.04,3.2-0.05,4.8-0.11c3.19-0.22,6.41-0.29,9.6-0.65
	c6.44-0.42,12.78-1.5,19.35-2.29c-5.96,2.79-12.28,4.95-18.8,6.18c-3.24,0.75-6.54,1.07-9.84,1.49c-1.65,0.16-3.31,0.21-4.97,0.32
	c-0.83,0.04-1.66,0.09-2.49,0.11h-2.49c-1.66-0.05-3.32,0.01-4.97-0.12c-1.65-0.12-3.31-0.21-4.96-0.36
	c-1.65-0.2-3.29-0.39-4.93-0.62s-3.27-0.56-4.89-0.85C56.48,316.54,50.07,314.7,44.15,311.73"/>
<path class="st2" d="M82.72,0c5.69,7.16,11.26,14.42,16.8,21.69c2.78,3.63,5.5,7.3,8.26,10.95c2.76,3.65,5.48,7.32,8.19,10.99
	l8.15,11.03l8.07,11.08c5.4,7.37,10.69,14.82,16.02,22.25l1.97,2.75l-3.2,1.02c-2.75,0.87-5.32,1.47-7.99,2.09
	c-2.65,0.57-5.31,1.09-7.98,1.5c-5.33,0.9-10.68,1.5-16.04,2.01c-5.36,0.47-10.73,0.74-16.1,0.84c-1.34,0.03-2.69,0.09-4.03,0.09
	l-4.03-0.03c-2.68-0.04-5.37,0.03-8.05-0.15l-8.03-0.39c-2.68-0.13-5.34-0.41-8.01-0.61c-5.34-0.39-10.65-1.14-15.96-1.79
	c-2.66-0.29-5.29-0.79-7.93-1.22l-7.9-1.34c-5.25-1.03-10.46-2.2-15.67-3.35l15.88,1.88l7.95,0.76c2.65,0.26,5.29,0.54,7.95,0.69
	c5.3,0.36,10.59,0.8,15.9,0.92c2.65,0.09,5.3,0.27,7.95,0.29l7.95,0.07l1.99,0.02l1.98-0.05l3.97-0.07l3.97-0.07
	c1.32-0.04,2.64-0.12,3.96-0.18c5.29-0.21,10.55-0.67,15.81-1.13c5.25-0.54,10.49-1.17,15.67-2.09c2.6-0.41,5.17-0.97,7.73-1.49
	c2.53-0.56,5.16-1.16,7.5-1.89l-1.23,3.76c-5.25-7.47-10.54-14.93-15.72-22.46l-7.8-11.27l-7.72-11.33
	c-2.58-3.77-5.14-7.56-7.68-11.36c-2.53-3.8-5.1-7.58-7.61-11.41C92.61,15.38,87.6,7.74,82.72,0"/>
<path class="st2" d="M62.86,78.34c-2.83,6.92-8.43,7.6-14.5,6.02c-6.07-1.58-10.31-4.83-7.48-11.75S82.71,0,82.71,0
	S65.69,71.42,62.86,78.34"/>
<polygon class="st2" points="45.86,359.44 45.86,384.33 56.14,384.33 49.13,395.03 70.15,410.02 45.86,404.67 45.86,417.24 
	37.92,405.47 22.28,423.4 29.05,399.31 19.48,396.1 30.22,390.21 27.18,379.24 37.22,382.45 "/>
<path class="st2" d="M62.37,314.32c-1.77,6.65-1.81,13.25-0.2,19.28c0.19,0.76,0.42,1.5,0.67,2.24c0.14,0.36,0.24,0.74,0.39,1.1
	l0.21,0.54c0.07,0.18,0.13,0.34,0.23,0.64c0.75,2.12,0.82,4.18,0.73,6.1c-0.11,1.93-0.45,3.76-0.89,5.52
	c-0.43,1.77-0.99,3.47-1.6,5.13c-2.48,6.63-5.88,12.66-9.66,18.39c-1.9,2.86-3.92,5.63-6.06,8.31c-2.15,2.67-4.36,5.28-6.81,7.7
	c2.94-6.2,6.02-12.22,8.95-18.26c2.92-6.03,5.8-12.06,7.97-18.17c1.06-3.04,1.96-6.13,2.25-9.05c0.13-1.44,0.09-2.84-0.22-3.95
	c-0.02-0.11-0.09-0.35-0.16-0.57l-0.19-0.66c-0.14-0.44-0.23-0.89-0.34-1.33c-0.2-0.9-0.36-1.8-0.49-2.71
	c-0.49-3.64-0.28-7.33,0.59-10.81C58.66,320.3,60.1,316.98,62.37,314.32"/>
<path class="st2" d="M38.26,423.4c0.6,1.5,1,3.03,1.34,4.57c0.33,1.54,0.6,3.08,0.78,4.63c0.19,1.55,0.3,3.12,0.35,4.69
	c0.04,1.57,0.01,3.15-0.21,4.75c-0.6-1.5-1.01-3.03-1.34-4.57s-0.6-3.08-0.78-4.63c-0.19-1.55-0.3-3.12-0.34-4.69
	C38.01,426.58,38.03,425,38.26,423.4"/>
<path class="st2" d="M13.67,407.7c-0.44,0.97-1.03,1.78-1.65,2.55c-0.63,0.77-1.31,1.47-2.03,2.13c-0.72,0.66-1.49,1.27-2.32,1.81
	s-1.7,1.04-2.7,1.39c0.44-0.97,1.03-1.78,1.65-2.56c0.63-0.77,1.31-1.47,2.03-2.13c0.73-0.66,1.5-1.27,2.32-1.81
	C11.81,408.55,12.67,408.05,13.67,407.7"/>
<path class="st2" d="M25.73,359.44c0.75,1.23,1.31,2.51,1.81,3.81c0.49,1.3,0.92,2.61,1.27,3.95c0.36,1.33,0.63,2.69,0.85,4.06
	c0.21,1.37,0.35,2.76,0.3,4.21c-0.76-1.23-1.32-2.51-1.81-3.81s-0.92-2.61-1.27-3.95c-0.35-1.33-0.63-2.69-0.84-4.06
	C25.83,362.27,25.69,360.88,25.73,359.44"/>
</svg>
