<?xml version="1.0" encoding="utf-8"?>
<!-- Generator: Adobe Illustrator 26.1.0, SVG Export Plug-In . SVG Version: 6.00 Build 0)  -->
<svg version="1.1" id="Шар_1" xmlns="http://www.w3.org/2000/svg" xmlns:xlink="http://www.w3.org/1999/xlink" x="0px" y="0px"
	 viewBox="0 0 144.12 211.49" style="enable-background:new 0 0 144.12 211.49;" xml:space="preserve">
<style type="text/css">
	.st0{fill:url(#SVGID_1_);}
</style>
<linearGradient id="SVGID_1_" gradientUnits="userSpaceOnUse" x1="110.8184" y1="187.5082" x2="39.674" y2="40.5136">
	<stop  offset="0.1075" style="stop-color:#FFFFFF;stop-opacity:0.7"/>
	<stop  offset="0.8424" style="stop-color:#FFFFFF;stop-opacity:0.2"/>
</linearGradient>
<path class="st0" d="M71.56,1.89c-0.1-1.17-1.81-1.19-1.93-0.02c-2.44,22.23-8.6,70.66-16.44,74.58
	c-8.98,4.49-39.89,22.58-47.2,26.87c-0.67,0.39-0.63,1.36,0.06,1.71c8.75,4.31,46.36,25.21,48.08,32.09
	c1.61,6.43,12.36,58.5,15.65,74.61c0.21,1.04,1.7,1.04,1.91-0.01c3.22-16.3,15.22-65.39,18.52-72.18
	c3.32-6.82,34.46-24.79,45.38-30.94c1.48-0.83,1.34-3.01-0.24-3.64c-10.66-4.27-39.56-16.87-48.44-31.34
	C77.44,58.18,73.16,20.65,71.56,1.89z"/>
</svg>
